<?xml version="1.0" standalone="no"?>
<!DOCTYPE svg PUBLIC "-//W3C//DTD SVG 20010904//EN"
 "http://www.w3.org/TR/2001/REC-SVG-20010904/DTD/svg10.dtd">
<svg version="1.0" xmlns="http://www.w3.org/2000/svg"
 width="564.000000pt" height="705.000000pt" viewBox="0 0 564.000000 705.000000"
 preserveAspectRatio="xMidYMid meet">

<g transform="translate(0.000000,705.000000) scale(0.100000,-0.100000)"
fill="#000000" stroke="none">
<path d="M880 6733 c0 -175 -2 -424 -4 -553 -6 -309 -7 -467 -4 -745 l3 -230
25 3 c32 3 42 20 35 62 -7 40 -21 663 -29 1305 -3 242 -5 448 -6 458 0 9 -4
17 -10 17 -5 0 -9 -123 -10 -317z"/>
<path d="M3674 7035 c3 -9 8 -51 12 -95 6 -78 0 -120 -15 -120 -13 0 -81 148
-81 177 -1 39 -33 -57 -40 -122 -5 -38 -11 -77 -15 -87 -5 -11 2 -20 21 -30
22 -10 30 -23 37 -57 6 -29 15 -45 27 -48 10 -3 20 -13 23 -24 3 -10 14 -19
24 -19 27 0 25 -50 -2 -61 -11 -4 -15 -8 -10 -8 26 -2 37 -78 26 -183 -2 -12
-42 -20 -54 -10 -19 15 -81 26 -73 13 5 -7 -3 -9 -24 -5 -28 6 -30 5 -29 -22
0 -16 4 -38 9 -49 8 -19 9 -19 9 3 1 28 2 28 48 -4 l38 -25 6 25 c12 45 21 51
35 24 31 -60 46 -119 36 -148 -6 -16 -8 -31 -4 -34 14 -15 26 -122 26 -251 1
-77 5 -149 9 -161 4 -13 23 -26 46 -33 58 -17 69 -35 43 -71 -25 -34 -31 -90
-8 -71 8 7 27 16 44 20 26 8 31 6 42 -17 l11 -26 20 31 c19 29 19 34 5 61 -11
22 -12 32 -3 41 17 17 64 13 79 -6 9 -12 27 -18 55 -18 28 0 43 -4 43 -12 0
-7 7 -13 16 -13 13 0 15 -7 10 -37 -5 -30 -4 -35 5 -23 9 12 10 11 4 -5 -4
-11 -14 -39 -22 -62 -19 -54 -35 -68 -62 -53 -12 6 -21 15 -21 20 0 21 -28 9
-34 -14 -9 -36 5 -478 15 -499 6 -10 14 -15 20 -11 5 3 37 7 69 7 46 2 62 6
74 22 17 23 26 138 14 180 -12 44 -10 442 2 450 6 4 10 12 9 18 -3 24 13 55
30 60 20 5 19 3 21 121 1 65 -3 94 -18 123 -20 40 -28 119 -38 373 -2 74 -9
159 -14 189 -6 30 -10 81 -10 114 0 44 -5 65 -20 84 -11 14 -20 36 -20 48 0
17 -7 24 -27 28 -22 4 -35 -2 -63 -29 -38 -36 -81 -44 -111 -21 -16 12 -16 16
-4 73 6 25 2 37 -14 53 -24 24 -27 33 -7 25 18 -7 23 15 25 124 l2 92 -126 0
c-110 0 -126 -2 -121 -15z m112 -240 c-3 -9 1 -18 9 -21 25 -10 17 -34 -10
-34 -27 0 -32 9 -13 28 9 9 9 12 0 12 -6 0 -9 7 -6 15 4 8 11 15 16 15 6 0 7
-7 4 -15z m-41 -35 c0 -7 -6 -15 -12 -17 -8 -3 -13 4 -13 17 0 13 5 20 13 18
6 -3 12 -11 12 -18z m145 -54 c0 -3 -4 -8 -10 -11 -5 -3 -10 -1 -10 4 0 6 5
11 10 11 6 0 10 -2 10 -4z"/>
<path d="M4891 7004 c5 -25 6 -50 3 -55 -3 -5 2 -12 10 -15 25 -10 19 -22 -10
-18 -20 2 -23 0 -14 -11 7 -8 9 -19 5 -26 -5 -8 -1 -9 13 -5 22 7 39 -8 22
-19 -8 -5 -7 -11 1 -21 6 -8 8 -14 4 -14 -4 0 -3 -6 3 -12 7 -9 7 -29 2 -58
-9 -48 -2 -150 10 -150 25 0 32 34 27 127 -3 54 -9 106 -12 116 -4 10 -3 17 4
17 7 0 11 32 11 95 l0 95 -44 0 -43 0 8 -46z"/>
<path d="M3330 7030 c0 -5 5 -10 10 -10 6 0 10 5 10 10 0 6 -4 10 -10 10 -5 0
-10 -4 -10 -10z"/>
<path d="M3406 7010 c-21 -4 -48 -5 -60 -2 -16 4 -18 2 -10 -7 6 -7 27 -14 45
-17 19 -2 44 -7 55 -9 24 -5 50 18 39 35 -7 11 -12 11 -69 0z"/>
<path d="M5467 6918 c-4 -13 0 -61 9 -107 5 -22 7 -21 26 18 21 43 28 46 101
42 35 -3 37 -1 37 28 l0 31 -84 0 c-58 0 -86 -4 -89 -12z"/>
<path d="M3337 6896 c-4 -15 -6 -31 -2 -34 10 -10 16 6 13 35 l-3 28 -8 -29z"/>
<path d="M3247 6618 c-15 -12 -14 -15 8 -40 29 -34 56 -28 49 10 -8 39 -29 51
-57 30z"/>
<path d="M3356 6565 c-9 -26 -7 -32 5 -12 6 10 9 21 6 23 -2 3 -7 -2 -11 -11z"/>
<path d="M3380 6540 c0 -5 7 -13 15 -18 9 -4 17 -19 20 -32 2 -13 10 -27 17
-32 11 -7 18 -8 43 -8 3 0 4 3 3 8 -1 4 -8 6 -16 4 -7 -2 -12 3 -11 10 3 28
-14 55 -42 65 -16 6 -29 7 -29 3z"/>
<path d="M4865 6511 c-35 -8 -36 -14 -16 -186 9 -79 17 -116 30 -130 22 -24
55 -120 47 -134 -4 -5 -2 -13 4 -16 8 -5 7 -11 -1 -21 -9 -11 -9 -14 1 -14 8
0 9 -10 4 -32 -4 -18 -6 -55 -4 -83 2 -27 3 -60 3 -72 -1 -13 4 -23 10 -23 8
0 8 -3 0 -11 -25 -25 11 -148 45 -149 6 0 12 -7 12 -15 0 -16 12 -20 24 -7 4
4 13 7 19 7 7 0 19 15 29 33 22 46 48 73 62 65 14 -9 48 -9 63 0 6 4 33 3 58
-3 25 -6 51 -7 57 -4 18 12 158 11 158 -1 0 -5 4 -4 8 2 5 8 22 11 44 8 21 -3
40 0 43 5 4 6 10 8 15 5 14 -9 27 27 21 59 -6 28 -31 50 -31 27 0 -6 -4 -11
-10 -11 -5 0 -10 7 -10 15 0 8 6 15 13 15 8 0 7 4 -3 10 -8 5 -28 8 -45 5 -16
-2 -118 -7 -226 -10 -108 -2 -203 -7 -211 -10 -8 -3 -23 7 -35 23 -19 26 -22
48 -28 198 -5 112 -11 174 -20 184 -8 10 -13 55 -14 130 -2 105 -4 116 -24
132 -23 18 -42 20 -92 9z m610 -688 c17 -10 17 -12 3 -13 -9 0 -20 4 -23 10
-4 6 -13 5 -25 -2 -19 -12 -36 -6 -27 9 8 13 48 10 72 -4z m55 2 c0 -9 -6 -12
-15 -9 -8 4 -12 10 -9 15 8 14 24 10 24 -6z m-430 -34 c0 -32 -21 -79 -28 -61
-8 23 -29 40 -38 32 -5 -4 3 5 16 20 29 32 50 36 50 9z"/>
<path d="M5480 6430 c0 -5 5 -10 10 -10 6 0 10 5 10 10 0 6 -4 10 -10 10 -5 0
-10 -4 -10 -10z"/>
<path d="M347 6413 c-4 -3 -7 -13 -7 -22 1 -14 3 -13 14 2 13 16 14 16 20 1 4
-9 9 -15 11 -12 3 3 3 13 -1 22 -6 16 -25 21 -37 9z"/>
<path d="M355 6370 c-5 -8 3 -21 21 -35 16 -13 30 -19 32 -14 6 14 3 24 -8 24
-5 0 -15 9 -23 19 -11 14 -16 16 -22 6z"/>
<path d="M1 6270 c0 -30 3 -48 6 -40 9 23 36 47 60 54 13 4 23 15 23 24 0 13
-10 17 -45 17 l-45 1 1 -56z"/>
<path d="M5484 6316 c-4 -9 -4 -20 0 -23 3 -4 12 -1 18 5 9 9 9 15 0 24 -9 9
-13 7 -18 -6z"/>
<path d="M411 6291 c-8 -15 -7 -20 5 -25 23 -9 24 -8 24 13 0 28 -17 35 -29
12z"/>
<path d="M414 6219 c3 -17 6 -49 6 -70 l0 -39 56 0 c36 0 61 -5 70 -15 9 -8
12 -15 8 -15 -5 0 -3 -5 3 -11 14 -14 53 -2 53 17 0 8 -8 21 -19 30 -14 13
-17 23 -11 50 4 18 6 35 3 37 -2 3 -26 3 -52 0 -38 -3 -50 -1 -54 11 -4 9 -13
16 -22 16 -8 0 -15 5 -15 10 0 6 -7 10 -16 10 -13 0 -15 -7 -10 -31z"/>
<path d="M5481 6204 c0 -11 3 -14 6 -6 3 7 2 16 -1 19 -3 4 -6 -2 -5 -13z"/>
<path d="M5480 6081 c0 -37 13 -61 23 -44 7 13 -5 83 -14 83 -5 0 -9 -18 -9
-39z"/>
<path d="M4517 6014 c-19 -25 -19 -25 2 -31 12 -3 21 -10 21 -16 0 -6 7 -1 16
11 16 24 11 62 -9 62 -7 0 -20 -12 -30 -26z"/>
<path d="M4270 6020 c0 -5 5 -10 11 -10 5 0 7 5 4 10 -3 6 -8 10 -11 10 -2 0
-4 -4 -4 -10z"/>
<path d="M0 5385 c0 -278 3 -505 6 -505 3 0 12 7 20 15 9 8 11 15 5 15 -6 0
-11 5 -11 10 0 6 15 10 33 8 43 -2 50 3 81 62 30 56 32 77 11 104 -25 33 -19
110 11 156 25 37 26 47 25 145 -2 103 -1 105 25 130 15 14 33 24 40 21 13 -5
64 15 64 25 0 4 -6 12 -14 18 -7 6 -11 22 -8 36 3 20 -1 27 -23 35 -14 5 -36
10 -49 10 -42 0 -55 20 -57 88 -2 73 -19 92 -81 89 -20 -1 -34 1 -32 4 2 4 -7
14 -21 23 l-25 16 0 -505z"/>
<path d="M429 5748 c-9 -30 -1 -58 19 -68 21 -9 23 -15 17 -53 -7 -42 -26 -67
-52 -67 -8 0 -16 6 -19 14 -6 16 -55 17 -66 1 -15 -20 -7 -32 30 -50 21 -11
43 -29 49 -42 9 -19 8 -26 -10 -38 -12 -8 -41 -15 -65 -15 l-43 0 3 -77 3 -78
30 0 c22 0 29 4 25 15 -11 38 -3 80 21 99 30 25 38 26 33 4 -5 -23 15 -54 23
-35 2 6 9 10 14 6 5 -3 0 -19 -12 -35 -22 -32 -20 -59 6 -59 9 0 15 -9 15 -24
0 -37 11 -61 21 -45 4 7 20 13 36 14 25 0 29 4 33 40 3 22 3 72 0 110 -5 68
-6 70 -32 73 -16 2 -28 7 -28 12 0 5 -7 16 -16 25 -37 37 20 78 106 76 33 0
69 -5 80 -11 26 -14 40 -92 39 -225 -1 -143 -1 -145 10 -145 6 0 9 86 8 215
-1 118 -5 215 -9 215 -4 0 -8 9 -8 20 0 28 -14 25 -28 -5 -10 -21 -17 -24 -52
-22 -56 4 -66 17 -44 58 9 19 22 37 28 41 15 10 4 17 -32 22 -17 2 -43 11 -56
20 -21 13 -74 23 -77 14z"/>
<path d="M667 5718 c-7 -25 11 -54 25 -40 10 10 0 62 -12 62 -4 0 -10 -10 -13
-22z"/>
<path d="M360 5714 c0 -8 5 -12 10 -9 6 4 8 11 5 16 -9 14 -15 11 -15 -7z"/>
<path d="M4688 5694 c-3 -3 -20 -6 -37 -6 -40 -1 -44 -8 -26 -50 12 -29 16
-88 15 -193 0 -11 0 -72 0 -136 0 -104 -2 -118 -21 -138 -18 -19 -30 -22 -83
-21 -129 5 -130 4 -170 -47 -38 -49 -45 -73 -21 -73 8 0 15 -4 15 -9 0 -5 14
-12 30 -16 17 -4 27 -11 24 -16 -10 -17 6 -61 19 -56 8 3 19 -8 27 -26 10 -23
10 -32 2 -35 -7 -2 -12 -10 -12 -19 0 -17 66 -84 74 -75 4 3 14 -3 24 -14 19
-19 22 -26 22 -44 0 -5 6 -10 13 -10 14 0 40 -40 36 -56 -1 -5 1 -36 6 -69 5
-33 8 -70 7 -82 -2 -26 26 -96 36 -89 4 2 5 -22 4 -55 -2 -32 -8 -57 -13 -53
-5 3 -9 -6 -9 -21 0 -14 -7 -37 -16 -50 -9 -13 -13 -29 -9 -35 11 -17 -25 -50
-53 -50 -14 0 -33 -7 -43 -16 -16 -15 -17 -14 -12 5 4 15 1 21 -12 21 -11 0
-15 -5 -11 -16 5 -12 0 -15 -27 -12 -25 2 -31 -1 -29 -14 3 -20 -14 -33 -23
-17 -4 6 -9 90 -11 187 -2 97 -6 197 -7 222 -2 25 0 60 4 78 4 17 4 32 0 32
-3 0 -7 28 -8 61 -2 64 -2 65 -93 143 -12 11 -24 11 -65 -3 -27 -9 -56 -20
-62 -24 -27 -17 -8 -117 22 -117 20 0 56 -60 49 -83 -3 -10 -2 -47 1 -82 7
-59 9 -65 31 -65 23 0 38 -12 27 -23 -3 -4 -15 -1 -26 5 -16 8 -23 7 -34 -8
-12 -16 -13 -15 -7 14 5 25 3 32 -10 32 -9 0 -16 5 -16 10 0 6 -5 10 -11 10
-5 0 -7 -5 -4 -11 4 -5 0 -18 -9 -28 -18 -20 -12 -72 10 -84 11 -6 13 -18 8
-45 -8 -45 -12 -51 -25 -32 -8 11 -12 12 -16 3 -6 -16 -37 -17 -64 -2 -16 8
-20 19 -18 52 1 23 6 47 11 53 5 7 2 14 -8 18 -10 4 -21 1 -26 -6 -4 -7 -8 -8
-8 -3 0 6 -7 1 -15 -9 -10 -13 -15 -15 -15 -6 0 30 -9 1 -14 -45 -3 -28 -3
-44 0 -37 8 18 21 15 27 -8 3 -11 12 -20 21 -20 9 0 16 -7 16 -16 0 -9 5 -12
12 -8 7 5 8 3 4 -5 -5 -7 -8 -28 -8 -47 0 -19 -4 -31 -9 -28 -5 3 -9 -2 -9
-10 0 -9 -8 -29 -19 -46 -16 -28 -19 -29 -27 -13 -7 16 -11 48 -15 110 -1 21
-2 21 -46 6 l-44 -15 30 -22 c17 -12 31 -32 33 -48 5 -30 -3 -36 -20 -15 -14
17 -168 23 -187 7 -8 -7 -11 -26 -7 -58 5 -48 25 -82 48 -82 8 0 19 -9 26 -20
7 -11 17 -20 22 -20 15 0 76 58 64 62 -7 3 -5 13 6 30 21 32 22 38 4 50 -9 6
-5 7 12 2 14 -3 26 -8 28 -9 2 -1 0 -43 -4 -93 -5 -70 -10 -89 -20 -85 -8 3
-14 1 -14 -5 0 -6 -9 -6 -25 1 -14 7 -25 15 -25 19 0 10 -77 0 -101 -13 -15
-8 -19 -21 -19 -64 0 -53 7 -66 40 -72 19 -4 75 -4 114 -1 26 3 31 -1 39 -32
5 -19 7 -84 5 -143 -5 -127 -16 -147 -63 -123 -31 16 -98 12 -122 -6 -8 -7
-11 -31 -9 -67 3 -61 11 -85 27 -76 5 4 9 1 9 -6 0 -10 3 -10 12 -1 7 7 24 12
39 12 15 0 38 4 51 9 16 6 29 5 39 -3 19 -13 34 -66 19 -66 -5 0 -10 5 -10 12
0 6 -6 4 -13 -6 -11 -15 -19 -16 -48 -8 -49 13 -108 7 -123 -13 -11 -16 -12
-132 -1 -143 8 -8 84 -19 90 -14 9 10 75 10 81 1 3 -5 -1 -9 -8 -9 -10 0 -9
-3 2 -10 12 -8 12 -11 -2 -27 -14 -15 -35 -19 -107 -21 -80 -2 -92 0 -109 18
l-19 21 -7 -23 c-3 -13 -6 -35 -6 -51 0 -15 -5 -36 -12 -47 -10 -15 -9 -22 5
-38 9 -10 36 -48 60 -85 24 -37 46 -65 50 -61 3 4 12 3 19 -2 7 -5 36 -11 64
-13 61 -3 129 28 153 71 13 23 22 27 54 26 20 -1 40 2 44 6 11 11 -23 38 -58
45 -56 11 -67 47 -63 204 2 72 6 143 9 155 4 16 2 21 -5 17 -15 -9 19 58 34
67 6 4 32 8 58 8 28 0 48 5 51 13 4 8 8 9 14 1 11 -15 87 -12 106 5 9 7 28 11
42 9 13 -3 22 -1 19 3 -8 13 10 11 23 -2 14 -14 83 9 83 28 0 18 59 12 64 -7
3 -8 7 -30 11 -47 7 -36 21 -43 28 -15 3 11 5 9 6 -8 1 -20 3 -22 11 -10 6 10
10 11 10 3 0 -8 15 -13 42 -13 23 0 38 3 35 6 -3 4 -1 16 5 28 12 22 17 96 7
96 -3 0 -5 36 -3 80 1 44 -2 80 -7 80 -6 0 -5 8 1 20 6 10 9 23 9 27 -1 4 1
16 6 27 5 11 3 26 -4 38 -8 12 -10 36 -6 62 26 181 34 199 86 210 71 14 111
-29 64 -69 -28 -24 -44 -110 -25 -145 11 -21 16 -195 10 -342 -3 -61 15 -93
44 -82 8 3 23 1 33 -4 14 -8 17 -25 18 -96 1 -52 -3 -86 -9 -86 -6 0 -6 -4 1
-11 6 -6 9 -19 6 -28 -3 -11 -2 -12 4 -4 5 8 14 9 23 3 9 -5 19 -5 27 1 8 8
23 7 47 -1 36 -12 46 -26 46 -66 0 -13 5 -24 10 -24 6 0 10 -4 10 -10 0 -5 -6
-7 -14 -4 -17 7 -59 -32 -51 -46 4 -6 2 -10 -3 -10 -6 0 -15 -13 -20 -30 -7
-19 -20 -32 -36 -36 -14 -3 -26 -10 -26 -14 0 -14 -54 0 -63 16 -18 32 -38 2
-42 -64 -1 -25 5 -38 26 -57 28 -23 28 -24 18 -79 -14 -69 -11 -73 94 -115 32
-13 86 -14 105 -3 7 5 18 28 25 53 12 42 15 44 52 45 22 1 45 -3 52 -8 11 -9
137 -39 151 -36 8 1 36 -9 68 -24 12 -5 32 -9 45 -7 13 1 33 -1 44 -5 31 -12
68 -27 86 -36 9 -5 21 -4 27 2 6 6 12 6 16 -1 4 -6 16 -11 27 -11 17 0 19 7
19 83 0 80 -1 82 -30 102 -27 18 -45 45 -20 30 6 -3 10 1 10 9 0 9 -5 16 -11
16 -6 0 -8 7 -5 16 4 9 1 23 -5 30 -6 8 -8 14 -5 14 4 0 1 7 -8 15 -8 9 -22
12 -32 8 -11 -4 -15 -3 -11 4 4 6 -5 14 -21 18 -27 7 -27 7 -4 18 12 5 22 14
22 18 0 4 16 11 35 15 19 3 33 9 30 13 -6 10 -64 1 -71 -10 -3 -5 -16 -9 -29
-9 -17 0 -28 -9 -40 -34 -9 -18 -27 -38 -41 -45 -32 -14 -34 -14 -34 7 -1 16
-29 -35 -49 -90 -6 -16 -17 -28 -26 -28 -8 0 -15 -4 -15 -9 0 -11 -49 -1 -57
12 -4 6 2 8 15 5 23 -6 31 7 10 14 -9 3 -13 32 -14 86 -1 48 -9 99 -18 122
-18 46 -20 60 -7 60 5 0 12 -10 14 -22 4 -20 4 -19 6 5 1 19 -4 27 -16 27 -14
0 -15 2 -5 9 8 4 12 19 10 32 -4 24 -5 24 -16 -4 -14 -34 -14 -166 0 -145 6 9
8 3 6 -17 -2 -16 -6 -32 -10 -35 -10 -8 3 -51 13 -44 5 3 9 -2 9 -11 0 -11 -5
-15 -15 -11 -10 4 -15 -1 -15 -15 0 -11 4 -18 9 -14 6 3 6 -7 0 -27 -11 -41
-11 -41 4 -32 6 4 8 3 4 -1 -24 -27 -106 8 -94 39 3 7 -1 62 -9 122 -18 134
-18 149 -9 354 5 91 7 182 6 203 -1 25 3 39 13 43 12 5 12 12 -4 48 -12 29
-16 57 -13 82 6 46 26 64 33 31 l5 -22 24 23 c23 21 24 22 3 22 -16 0 -20 5
-18 26 2 14 9 30 17 35 12 8 12 10 -1 19 -8 5 -10 10 -4 10 13 0 10 93 -4 130
-8 21 -6 26 12 32 16 5 17 6 4 7 -17 1 -23 13 -18 36 6 30 7 41 1 50 -9 16
-10 65 0 65 5 0 6 7 3 15 -4 8 -1 15 5 15 6 0 11 5 11 10 0 6 -7 10 -16 10
-12 0 -14 4 -6 13 5 7 6 21 1 32 -11 29 -11 75 1 75 7 0 9 19 5 53 -10 78 -8
198 3 209 6 6 15 -1 24 -20 13 -26 13 -30 -1 -40 -14 -10 -14 -11 2 -11 19 -1
24 -21 5 -21 -8 0 -9 -3 -3 -8 12 -8 12 -29 0 -56 -4 -10 -4 -21 1 -25 13 -9
18 -55 5 -47 -7 4 -11 -1 -11 -14 0 -12 5 -18 10 -15 6 3 11 -4 12 -17 1 -23
0 -31 -7 -80 -3 -16 0 -28 6 -28 6 0 6 -6 -1 -19 -13 -25 -13 -71 0 -71 6 0 6
-9 0 -25 -6 -16 -6 -25 0 -25 6 0 5 -8 -2 -19 -9 -15 -9 -23 1 -35 9 -11 10
-16 2 -16 -13 0 -12 -49 2 -67 6 -9 5 -13 -3 -13 -8 0 -11 -3 -7 -6 3 -3 2
-17 -3 -29 -6 -16 -5 -25 3 -29 9 -3 8 -7 -3 -15 -12 -8 -12 -11 -1 -11 8 0
11 -7 8 -19 -3 -13 1 -21 12 -24 12 -3 10 -6 -9 -15 -14 -6 -19 -11 -12 -11
10 -1 12 -11 8 -39 -4 -31 -2 -39 12 -39 9 0 27 12 40 26 18 20 22 33 18 55
-4 17 -11 33 -16 36 -5 3 4 17 20 32 27 24 30 24 47 9 16 -15 38 -17 170 -13
l152 4 1 437 0 436 -33 3 c-49 5 -58 5 -268 -2 -110 -4 -213 -3 -237 2 -27 6
-44 6 -51 -1 -15 -15 -22 9 -23 84 -2 322 4 584 14 597 9 10 9 15 -1 22 -8 4
-9 9 -3 11 5 2 13 31 17 64 3 32 11 67 16 76 7 14 3 22 -19 39 -15 12 -32 33
-39 48 -8 18 -12 21 -13 10 0 -10 -6 -18 -12 -18 -7 0 -27 -16 -44 -36 -28
-32 -31 -39 -23 -74 5 -21 8 -203 7 -405 l-2 -366 -26 -22 c-45 -38 -43 -49
20 -116 33 -34 59 -65 58 -69 0 -4 10 -13 23 -19 13 -7 20 -13 15 -13 -5 0 1
-9 14 -20 13 -11 27 -20 32 -20 5 0 0 -13 -12 -30 l-21 -29 -42 37 c-23 20
-63 58 -89 84 -44 44 -48 46 -58 29 -9 -18 -8 -42 6 -109 2 -12 29 -48 58 -80
30 -31 62 -67 73 -79 18 -22 18 -22 42 -3 13 11 18 20 12 20 -7 0 -9 5 -6 10
4 6 11 8 16 5 5 -4 9 8 9 24 0 17 4 31 10 31 19 0 30 -41 30 -114 0 -67 -2
-77 -22 -87 -19 -10 -25 -8 -50 19 -15 18 -33 29 -40 27 -8 -3 -37 17 -65 45
-57 56 -65 54 -67 -21 0 -30 -7 -54 -18 -65 -15 -16 -19 -15 -50 3 l-33 19 -2
205 c-2 232 8 307 45 344 30 30 31 38 38 240 7 198 3 209 -74 213 -80 5 -88
23 -95 220 -4 124 -2 162 9 179 8 12 14 29 14 38 0 15 19 55 31 65 3 3 8 15
11 28 5 16 2 22 -11 22 -10 0 -20 -3 -23 -6z m-231 -726 c-21 -14 -28 -9 -15
12 9 13 14 16 20 7 4 -6 2 -15 -5 -19z m603 -618 c0 -5 -2 -10 -4 -10 -3 0 -8
5 -11 10 -3 6 -1 10 4 10 6 0 11 -4 11 -10z m243 -17 c-15 -6 -17 -39 -3 -48
14 -9 12 -45 -2 -45 -17 0 -22 78 -7 96 7 8 15 12 18 8 3 -4 0 -9 -6 -11z m-1
-131 c-7 -2 -12 -10 -12 -18 0 -9 3 -13 8 -11 4 3 7 -25 7 -61 0 -37 -5 -67
-11 -69 -7 -2 -9 17 -6 58 3 38 0 64 -6 68 -18 11 -3 51 16 43 10 -4 12 -7 4
-10z m-45 -24 c-3 -7 -5 -2 -5 12 0 14 2 19 5 13 2 -7 2 -19 0 -25z m-2 -48
c3 -5 1 -10 -4 -10 -6 0 -11 5 -11 10 0 6 2 10 4 10 3 0 8 -4 11 -10z m-1086
-27 c0 -25 -1 -26 -9 -8 -12 27 -12 35 0 35 6 0 10 -12 9 -27z m1038 -25 c-3
-8 -6 -5 -6 6 -1 11 2 17 5 13 3 -3 4 -12 1 -19z m-747 8 c0 -3 -4 -8 -10 -11
-5 -3 -10 -1 -10 4 0 6 5 11 10 11 6 0 10 -2 10 -4z m500 -112 c0 -16 -23 -18
-50 -4 -30 16 -62 77 -54 102 6 21 10 19 55 -31 27 -29 49 -59 49 -67z m313
64 c12 -7 24 -14 26 -15 2 -2 -6 -12 -18 -22 -13 -11 -20 -25 -16 -30 3 -6 1
-11 -4 -11 -6 0 -11 9 -11 20 0 11 5 20 10 20 6 0 3 11 -6 25 -18 28 -14 31
19 13z m35 -83 c0 -25 -7 -50 -13 -55 -9 -7 -11 3 -10 43 2 60 2 57 15 57 6 0
9 -20 8 -45z m-796 -72 c-7 -12 -7 -25 -1 -34 12 -19 11 -79 -1 -79 -5 0 -10
-9 -10 -20 0 -25 -36 -27 -44 -2 -10 31 9 127 30 149 22 23 41 14 26 -14z
m-552 -18 c0 -8 -4 -15 -10 -15 -5 0 -7 7 -4 15 4 8 8 15 10 15 2 0 4 -7 4
-15z m1310 -19 c0 -3 -4 -8 -10 -11 -5 -3 -10 -1 -10 4 0 6 5 11 10 11 6 0 10
-2 10 -4z m-1041 -49 c-7 -11 -22 -31 -35 -44 -13 -13 -24 -32 -24 -42 0 -24
-26 -34 -52 -20 -14 8 -23 8 -31 0 -15 -15 -37 -14 -37 1 0 6 -8 20 -17 31
-17 18 -17 20 2 33 11 8 19 24 17 34 -2 11 2 20 7 20 6 0 11 -4 11 -10 0 -16
36 -12 50 5 7 9 18 14 24 12 6 -2 25 2 41 9 39 16 60 2 44 -29z m851 -157 c0
-5 -2 -10 -4 -10 -3 0 -8 5 -11 10 -3 6 -1 10 4 10 6 0 11 -4 11 -10z m-788
-24 c4 -6 7 -15 7 -21 0 -5 -3 -4 -6 3 -8 21 -23 13 -23 -14 0 -19 -4 -24 -17
-21 -10 3 -30 8 -45 11 -25 6 -29 12 -28 44 0 4 12 8 26 9 15 1 29 5 32 8 8 7
45 -5 54 -19z m212 -2 c21 -8 21 -85 0 -130 l-16 -34 -23 26 c-18 21 -23 38
-22 73 2 63 19 81 61 65z m-324 -71 c0 -5 -5 -15 -10 -23 -8 -12 -10 -11 -10
8 0 12 5 22 10 22 6 0 10 -3 10 -7z m117 -9 c-3 -3 -12 -4 -19 -1 -8 3 -5 6 6
6 11 1 17 -2 13 -5z m-143 -28 c16 -4 32 -3 35 2 10 15 51 25 51 12 0 -6 -6
-13 -14 -16 -8 -3 -22 -17 -31 -30 -14 -21 -14 -24 0 -24 8 0 15 6 15 13 0 17
43 41 62 34 8 -3 4 -8 -12 -15 -14 -6 -21 -11 -15 -11 25 -2 -40 -33 -71 -34
-36 -1 -68 26 -59 51 3 7 -4 12 -18 12 -21 1 -22 1 -3 15 11 8 22 11 25 7 3
-5 19 -12 35 -16z m154 7 c-10 -2 -28 -2 -40 0 -13 2 -5 4 17 4 22 1 32 -1 23
-4z m-238 -13 c0 -5 7 -10 16 -10 13 0 14 -3 5 -14 -9 -11 -9 -15 1 -19 7 -3
2 -4 -12 -4 -50 3 -84 57 -35 57 14 0 25 -4 25 -10z m-117 -137 c-7 -2 -19 -2
-25 0 -7 3 -2 5 12 5 14 0 19 -2 13 -5z m22 -123 c3 -5 -1 -10 -9 -10 -9 0
-16 5 -16 10 0 6 4 10 9 10 6 0 13 -4 16 -10z m5 -40 c0 -5 -4 -10 -10 -10 -5
0 -10 5 -10 10 0 6 5 10 10 10 6 0 10 -4 10 -10z m1570 -444 c0 -2 -9 -6 -20
-9 -11 -3 -20 -1 -20 4 0 5 9 9 20 9 11 0 20 -2 20 -4z"/>
<path d="M1236 5682 c-9 -15 -10 -391 -1 -400 13 -13 17 18 21 159 4 150 5
154 30 176 14 12 31 20 37 17 9 -3 12 -84 13 -297 1 -160 5 -322 9 -359 7 -65
6 -68 -21 -96 -18 -17 -28 -37 -26 -50 3 -16 -3 -23 -25 -28 -15 -3 -32 -7
-37 -8 -10 -2 -36 -73 -36 -99 0 -10 -4 -16 -10 -12 -5 3 -7 11 -5 18 3 7 -12
19 -35 29 -22 9 -40 13 -40 8 0 -8 -42 -6 -91 4 -23 5 -25 3 -21 -23 3 -20 -2
-35 -17 -50 -19 -19 -21 -32 -21 -133 0 -124 6 -158 25 -158 14 0 27 -99 14
-114 -4 -4 -3 -22 2 -38 9 -34 5 -48 -16 -48 -22 0 -35 -34 -36 -97 0 -32 -4
-78 -7 -102 -6 -40 -10 -44 -34 -45 -20 -1 -28 3 -28 16 0 23 -17 32 -27 14
-4 -8 -24 -16 -43 -18 -32 -3 -35 -1 -38 27 -2 17 -10 34 -18 38 -8 5 -12 12
-9 18 4 5 2 9 -3 9 -5 0 -9 12 -9 28 1 15 -1 34 -4 42 -3 10 2 14 14 12 9 -2
17 3 18 10 0 7 5 4 10 -7 7 -15 8 -12 3 13 -8 43 13 42 32 -3 16 -40 18 -59 4
-50 -5 3 -8 -7 -5 -25 2 -16 0 -44 -5 -60 -12 -41 6 -49 38 -16 23 22 27 35
27 86 0 41 -3 60 -12 60 -23 0 -34 110 -12 118 5 2 9 16 8 30 0 27 0 27 -10 4
-11 -28 -27 -22 -23 10 1 13 3 27 3 32 1 4 7 6 14 3 10 -4 13 2 9 20 -3 17 1
29 11 34 20 12 29 68 29 190 1 65 5 99 12 99 7 0 7 3 1 8 -5 4 -11 21 -12 38
-2 26 3 33 33 44 l34 14 0 67 c0 60 -3 70 -25 87 -14 11 -24 26 -23 33 5 21
-31 23 -38 2 -4 -10 -18 -30 -33 -46 -20 -22 -25 -38 -26 -82 0 -30 -6 -60
-13 -67 -6 -6 -12 -18 -12 -26 0 -16 24 -42 39 -42 6 0 11 -6 11 -12 0 -21
-17 -41 -28 -34 -16 10 -44 -54 -47 -109 -2 -36 -9 -54 -25 -67 -28 -23 -80
-24 -80 -2 0 8 -4 13 -9 9 -5 -3 -12 -1 -16 5 -3 5 0 10 7 11 7 0 0 5 -17 10
-16 5 -47 7 -67 5 -44 -6 -56 7 -32 31 18 18 42 23 59 12 6 -4 36 -10 67 -13
l56 -6 0 67 c0 38 1 94 2 126 3 120 0 123 -129 131 -75 5 -93 12 -96 43 -6 48
-18 84 -25 73 -14 -22 -19 -453 -7 -583 3 -37 3 -66 -1 -63 -4 2 -8 -35 -10
-82 -2 -58 -10 -102 -23 -131 -22 -50 -25 -87 -7 -93 7 -3 15 -29 18 -59 l5
-54 52 -5 c52 -6 79 -22 113 -70 35 -50 34 -66 -5 -84 -20 -10 -47 -35 -60
-56 -14 -23 -36 -42 -50 -46 -36 -9 -113 5 -123 22 -6 11 -11 6 -22 -21 -8
-19 -20 -35 -27 -35 -15 0 -17 -16 -3 -25 6 -4 8 -10 5 -15 -3 -4 6 -15 20
-24 35 -23 33 -44 -4 -38 -25 3 -28 1 -28 -22 0 -29 23 -36 30 -8 3 12 5 10 6
-7 1 -17 5 -21 17 -17 8 3 13 2 10 -2 -12 -19 140 -2 202 23 47 19 46 18 32
45 -6 12 -7 26 -2 37 48 95 65 163 42 163 -5 0 -10 6 -10 14 0 18 31 25 140
31 110 6 172 15 188 27 6 6 12 7 12 4 0 -4 7 0 16 9 15 14 17 14 30 -2 12 -16
13 -16 14 -1 0 9 8 17 18 16 9 0 41 7 70 15 29 9 70 14 90 11 26 -3 31 -2 18
4 -23 10 -6 25 18 16 9 -4 18 0 22 9 3 9 12 18 19 21 9 3 12 0 8 -10 -9 -24
31 -16 42 9 10 21 21 24 55 16 8 -2 14 2 12 9 -2 10 10 12 48 7 28 -3 50 -1
50 4 0 12 53 21 64 11 5 -5 19 -5 31 0 13 5 33 6 46 3 24 -5 24 -5 4 10 -11 9
-17 17 -13 17 4 0 3 11 -2 25 -5 14 -7 38 -4 55 5 25 11 30 35 30 16 0 29 -4
29 -10 0 -9 106 -7 116 2 2 3 14 24 27 49 l24 44 57 0 c49 1 60 4 77 25 25 33
24 38 -6 32 -15 -2 -25 0 -25 7 0 6 -10 11 -23 11 -33 0 -94 34 -89 49 3 9 -2
11 -19 6 -13 -4 -32 -9 -41 -11 -22 -6 -23 9 -3 26 22 18 18 28 -10 28 -21 0
-25 -5 -25 -29 0 -33 -19 -46 -73 -50 -26 -3 -43 1 -50 11 -7 8 -19 16 -27 18
-24 5 -36 22 -16 22 9 0 15 4 12 9 -3 5 1 8 10 7 30 -2 40 29 21 69 -30 63
-23 80 43 105 19 7 44 22 56 32 11 10 29 18 40 18 16 0 16 2 -5 13 -13 6 -23
15 -22 20 0 4 1 14 1 22 0 8 8 15 18 14 10 0 12 -3 5 -6 -13 -5 -18 -33 -7
-33 20 0 41 44 40 82 l-1 43 -79 6 c-43 4 -81 11 -85 16 -10 16 -48 33 -73 33
-13 0 -33 7 -44 15 -26 20 -33 19 -27 -5 3 -11 10 -20 16 -20 6 0 8 -3 5 -6
-4 -3 -17 2 -31 10 -13 9 -32 14 -41 10 -9 -3 -24 -3 -34 1 -16 7 -15 8 3 15
17 7 17 9 3 9 -10 1 -18 6 -18 12 0 12 37 3 58 -14 9 -7 11 -6 6 7 -5 14 -2
16 20 10 14 -3 26 -5 27 -3 0 2 3 148 6 324 3 197 9 325 15 332 22 26 -35 105
-63 88 -13 -9 -76 32 -81 53 -3 9 -18 24 -34 32 -16 8 -31 18 -34 21 -6 7 -46
29 -54 29 -3 0 -7 -4 -10 -8z m231 -717 c1 -67 0 -75 -17 -75 -10 0 -22 5 -25
10 -3 6 -17 10 -31 10 -24 0 -24 1 -10 22 9 12 16 37 16 55 0 23 5 33 15 33 8
0 15 5 15 10 0 6 8 10 18 10 15 0 18 -11 19 -75z m-30 -107 c-3 -8 -6 -5 -6 6
-1 11 2 17 5 13 3 -3 4 -12 1 -19z m-340 -158 c19 0 20 -3 10 -35 -10 -33 -27
-48 -27 -24 0 8 -5 8 -15 -1 -10 -9 -15 -9 -15 -1 0 6 -8 11 -17 11 -14 0 -15
2 -4 9 8 5 9 11 3 15 -7 4 -6 14 1 30 11 22 14 23 28 10 8 -8 25 -14 36 -14z
m-447 -59 c0 -5 -7 -11 -15 -15 -15 -5 -20 5 -8 17 9 10 23 9 23 -2z m34 -6
c-4 -8 -10 -12 -15 -9 -11 6 -2 24 11 24 5 0 7 -7 4 -15z m501 -25 c4 -12 2
-27 -4 -34 -6 -7 -8 -16 -4 -20 4 -4 1 -11 -7 -16 -9 -6 -18 -3 -26 8 -9 13
-9 19 -1 24 8 5 6 8 -5 8 -10 0 -18 -4 -18 -10 0 -5 -5 -10 -12 -10 -12 0 50
66 64 69 4 0 10 -8 13 -19z m-2 -132 c16 -22 17 -29 7 -49 -7 -13 -14 -25 -15
-27 -7 -9 -66 24 -80 44 -16 25 -8 33 13 12 9 -9 14 -4 23 21 13 36 24 36 52
-1z m-673 -57 c0 -8 30 -21 55 -25 17 -2 18 -53 1 -59 -9 -3 -18 -2 -21 3 -4
6 -16 10 -28 10 -13 0 -30 9 -40 20 -18 22 -23 45 -7 35 6 -3 10 1 10 9 0 9 7
16 15 16 8 0 15 -4 15 -9z m590 -5 c0 -2 -7 -7 -16 -10 -8 -3 -12 -2 -9 4 6
10 25 14 25 6z m15 -104 c-4 -12 -3 -13 10 -2 18 15 20 13 29 -16 4 -14 1 -28
-9 -37 -17 -17 -20 -47 -5 -47 5 0 8 -12 7 -27 -7 -59 -31 -79 -57 -48 -17 21
-24 172 -8 189 16 17 41 8 33 -12z m418 -154 c5 -21 5 -43 0 -52 -15 -27 -43
4 -50 53 -6 41 -5 43 18 39 18 -2 25 -12 32 -40z m-852 -139 c22 -23 28 -36
23 -52 -10 -34 -21 -41 -62 -42 -41 -1 -40 -3 -34 65 2 14 32 60 40 60 1 0 16
-14 33 -31z m612 -67 c14 -7 -33 -34 -49 -28 -9 3 -24 1 -35 -4 -16 -9 -19 -7
-19 8 0 10 3 22 7 26 8 7 81 6 96 -2z"/>
<path d="M4220 5630 c0 -5 5 -10 11 -10 5 0 7 5 4 10 -3 6 -8 10 -11 10 -2 0
-4 -4 -4 -10z"/>
<path d="M355 5610 c-3 -5 -2 -10 4 -10 5 0 13 5 16 10 3 6 2 10 -4 10 -5 0
-13 -4 -16 -10z"/>
<path d="M1771 5519 c-15 -44 -14 -69 4 -69 10 0 15 10 15 30 0 23 6 33 26 42
23 11 24 13 7 19 -32 13 -41 10 -52 -22z"/>
<path d="M1885 5540 c-22 -6 -11 -8 43 -8 39 1 72 5 72 9 0 11 -73 10 -115 -1z"/>
<path d="M5480 5475 c-30 -26 -67 -68 -82 -93 -30 -53 -37 -98 -13 -88 8 3 15
1 15 -4 0 -23 18 -7 35 31 10 22 28 47 39 55 29 20 95 17 134 -6 l32 -20 0 68
c0 74 -8 85 -71 97 -30 5 -40 1 -89 -40z"/>
<path d="M5230 5470 c0 -5 7 -10 15 -10 8 0 15 5 15 10 0 6 -7 10 -15 10 -8 0
-15 -4 -15 -10z"/>
<path d="M5237 5313 c-11 -20 -15 -60 -7 -72 7 -12 11 -12 24 2 18 17 21 37 6
37 -5 0 -7 6 -4 14 6 15 -12 32 -19 19z"/>
<path d="M3560 5244 c0 -3 6 -12 14 -19 7 -8 12 -29 10 -52 -2 -21 -3 -42 -4
-48 0 -5 -5 -3 -11 5 -8 11 -9 6 -5 -20 3 -19 8 -72 12 -117 5 -75 4 -82 -15
-93 -25 -13 -28 -28 -4 -26 13 1 17 -9 20 -43 4 -59 20 -74 28 -27 4 20 5 43
2 51 -4 8 1 18 9 23 14 8 14 11 -1 25 -22 23 -15 50 15 57 l25 6 -27 7 c-16 4
-28 12 -28 18 0 6 7 6 20 -1 27 -14 34 6 27 71 -4 28 -2 49 3 49 6 0 10 21 10
46 0 37 -5 52 -26 70 -22 21 -74 34 -74 18z"/>
<path d="M5294 5238 c-3 -4 9 -8 26 -8 17 0 29 4 25 9 -6 11 -44 10 -51 -1z"/>
<path d="M3287 5183 c-4 -3 -7 -12 -7 -20 0 -16 67 -18 90 -3 13 9 13 11 0 20
-17 11 -73 13 -83 3z"/>
<path d="M1977 5127 c-11 -20 -16 -44 -13 -61 3 -16 -1 -43 -9 -62 -7 -18 -11
-35 -7 -38 3 -3 -2 -6 -11 -6 -20 0 -37 -30 -37 -63 0 -22 6 -26 41 -32 37 -6
43 -12 63 -54 21 -47 30 -53 54 -37 7 4 19 3 27 -4 8 -7 15 -11 16 -9 0 2 3
29 6 60 5 60 -6 79 -46 82 -12 1 -21 4 -21 8 0 4 -9 11 -20 14 -23 7 -27 25
-6 25 8 0 17 6 20 13 5 10 7 10 12 0 7 -15 80 -17 89 -3 4 6 10 8 14 6 9 -6
10 0 17 80 5 55 3 64 -17 83 -17 16 -34 21 -64 20 -22 -1 -51 1 -65 5 -21 6
-28 2 -43 -27z"/>
<path d="M4250 5066 c0 -14 5 -26 10 -26 6 0 10 9 10 19 0 11 -4 23 -10 26 -6
4 -10 -5 -10 -19z"/>
<path d="M268 5063 c7 -3 16 -2 19 1 4 3 -2 6 -13 5 -11 0 -14 -3 -6 -6z"/>
<path d="M690 4925 c0 -14 5 -25 10 -25 6 0 10 11 10 25 0 14 -4 25 -10 25 -5
0 -10 -11 -10 -25z"/>
<path d="M2571 4931 c-16 -30 -14 -39 19 -74 27 -28 32 -30 43 -17 7 8 18 15
26 15 27 0 23 25 -6 35 -16 6 -33 20 -38 32 -14 30 -31 33 -44 9z"/>
<path d="M2722 4933 c-7 -2 -17 -14 -23 -25 -11 -20 -11 -20 15 -2 20 15 36
37 24 33 -2 0 -9 -3 -16 -6z"/>
<path d="M2727 4879 c4 -12 -1 -25 -13 -34 -18 -14 -18 -14 3 -15 12 0 27 9
33 19 14 26 13 29 -9 40 -16 9 -18 8 -14 -10z"/>
<path d="M1 4660 c0 -118 3 -208 6 -200 4 8 13 20 21 26 12 9 13 26 8 90 -4
43 -8 123 -9 176 -1 62 -6 101 -14 109 -11 10 -13 -30 -12 -201z"/>
<path d="M2770 4859 c0 -5 5 -7 10 -4 6 3 10 8 10 11 0 2 -4 4 -10 4 -5 0 -10
-5 -10 -11z"/>
<path d="M5182 4853 c-18 -4 -22 -9 -16 -26 4 -12 12 -25 18 -29 18 -12 46 -9
46 5 0 21 -12 57 -19 56 -3 -1 -16 -4 -29 -6z"/>
<path d="M4426 4811 c-4 -7 -5 -15 -2 -18 9 -9 19 4 14 18 -4 11 -6 11 -12 0z"/>
<path d="M4450 4790 c0 -5 7 -10 15 -10 8 0 15 5 15 10 0 6 -7 10 -15 10 -8 0
-15 -4 -15 -10z"/>
<path d="M2354 4765 c-4 -8 -1 -22 5 -29 8 -10 9 -16 1 -21 -5 -3 -10 -15 -10
-26 0 -10 -4 -19 -8 -19 -5 0 -6 -37 -4 -83 l4 -83 -33 -1 c-27 -2 -30 0 -14
7 17 7 17 9 3 9 -10 1 -18 5 -18 10 0 5 8 12 18 14 10 3 6 5 -10 6 -16 0 -28
-4 -29 -11 -1 -7 -2 -27 -3 -44 -3 -54 -47 -84 -73 -51 -16 19 -24 65 -13 72
6 4 8 10 5 15 -3 5 -2 11 2 13 5 3 8 40 7 82 -1 75 -1 77 -33 96 -32 19 -32
19 -58 -1 -14 -11 -29 -17 -34 -14 -17 10 -48 -16 -54 -48 -4 -17 -16 -46 -26
-64 l-18 -32 25 -6 c22 -6 24 -12 25 -64 3 -87 -2 -136 -13 -149 -7 -9 -7 -13
0 -13 6 0 14 -31 18 -70 6 -64 8 -69 26 -59 10 6 27 8 37 4 10 -3 24 1 31 10
6 8 27 17 44 21 30 5 58 23 109 68 20 18 63 21 73 5 3 -6 17 -8 30 -5 13 4 24
2 24 -3 0 -5 -12 -12 -27 -16 -16 -4 -22 -10 -16 -12 8 -3 -13 -30 -50 -66
-92 -92 -120 -151 -125 -262 -4 -81 -2 -93 18 -117 27 -35 50 -36 50 -2 0 15
4 23 10 19 6 -4 18 -1 27 6 13 11 17 10 30 -6 13 -19 12 -20 -17 -26 -41 -9
-43 -12 -45 -67 -1 -37 -9 -60 -42 -110 -41 -62 -47 -85 -58 -206 -2 -27 -7
-62 -11 -80 -6 -26 -4 -29 8 -19 12 11 14 8 10 -18 -5 -32 0 -38 73 -86 55
-36 101 -45 143 -27 19 8 52 14 73 14 22 0 39 4 39 9 0 18 64 31 110 23 43 -8
48 -6 100 33 126 95 193 136 235 142 38 5 44 3 50 -16 3 -11 4 -25 0 -30 -3
-6 16 -30 42 -55 92 -86 104 -99 99 -111 -5 -14 31 -33 81 -45 23 -6 33 -4 37
6 3 8 13 14 22 14 25 0 82 38 89 60 3 10 22 26 41 35 19 9 38 24 41 33 13 35
36 41 142 39 l105 -2 0 60 1 60 -100 5 c-86 4 -100 8 -103 23 -2 10 8 30 22
44 14 14 26 29 26 34 0 15 -43 49 -62 49 -10 0 -18 5 -18 11 0 5 -4 8 -9 5
-12 -8 -19 25 -10 49 4 12 8 14 8 6 1 -10 9 -7 26 9 43 40 30 63 -42 76 -34 6
-73 18 -86 27 -25 16 -109 169 -105 191 7 38 -64 138 -160 228 -112 103 -220
145 -345 135 -65 -6 -112 -13 -112 -17 0 -1 -45 -7 -114 -14 -19 -2 -47 1 -63
6 -28 10 -34 28 -28 81 1 10 -4 25 -10 32 -15 18 -6 46 13 39 23 -8 40 22 33
60 -5 24 -2 37 9 46 20 16 20 60 0 60 -8 0 -15 7 -15 15 0 18 -16 20 -23 3 -3
-7 -6 -3 -6 10 -1 15 -5 21 -13 17 -7 -4 -2 3 11 14 l23 21 -23 20 c-29 24
-38 25 -45 5z m-278 -91 c-3 -9 -6 -18 -6 -20 0 -2 -7 -4 -15 -4 -18 0 -20 26
-2 33 23 10 29 7 23 -9z m261 -696 c-2 -13 -4 -5 -4 17 -1 22 1 32 4 23 2 -10
2 -28 0 -40z m453 -60 c0 -5 13 -23 30 -41 37 -40 49 -101 45 -227 -4 -102 -6
-118 -19 -138 -4 -7 -11 -26 -16 -42 -6 -21 -5 -30 7 -34 8 -3 12 -10 8 -15
-3 -6 -12 -8 -19 -5 -9 3 -13 -1 -13 -12 2 -12 -17 -24 -68 -42 -38 -14 -72
-28 -75 -31 -3 -4 -17 -12 -32 -20 -15 -8 -24 -19 -21 -24 4 -7 -1 -8 -12 -3
-15 5 -16 4 -5 -9 7 -8 8 -15 2 -15 -5 0 -15 7 -22 15 -9 11 -26 13 -75 8 -81
-7 -108 0 -126 34 -8 16 -28 46 -44 68 -17 22 -43 69 -60 105 -36 79 -40 174
-11 258 18 53 36 69 36 32 0 -16 7 -20 30 -20 27 0 30 3 30 34 0 47 9 66 30
66 19 0 37 -18 55 -54 12 -23 67 -37 63 -15 -2 7 4 14 14 16 10 3 18 -3 20
-14 3 -14 12 -17 53 -14 62 4 73 10 50 28 -11 7 -13 13 -6 13 7 0 9 5 5 12 -5
8 3 9 30 5 30 -5 37 -3 32 8 -4 11 0 12 19 5 14 -5 25 -7 25 -4 0 4 7 1 15 -6
19 -16 19 -11 -4 41 -14 30 -16 46 -9 50 14 9 38 0 38 -13z m185 -285 c-2 -27
-18 -31 -21 -5 -3 13 1 22 9 22 8 0 13 -8 12 -17z m-21 -44 c-8 -13 10 -11 26
4 12 10 12 9 1 -5 -16 -22 -47 -23 -54 -4 -3 8 -3 16 0 19 8 9 33 -4 27 -14z"/>
<path d="M2379 3598 c-7 -21 -3 -46 5 -40 6 3 20 8 30 9 25 4 30 9 21 22 -5 9
-53 16 -56 9z"/>
<path d="M2330 3581 c0 -10 19 -25 25 -20 1 2 -3 10 -11 17 -8 7 -14 8 -14 3z"/>
<path d="M2456 3500 c-79 -4 -101 -8 -110 -22 -14 -23 -4 -30 24 -20 15 5 35
5 52 -2 21 -8 31 -8 36 0 4 6 23 14 42 18 35 6 69 22 60 28 -3 2 -50 1 -104
-2z"/>
<path d="M2720 4755 c0 -8 -7 -15 -16 -15 -8 0 -12 -4 -9 -10 3 -6 -5 -10 -19
-10 -13 0 -26 5 -28 11 -2 5 -20 12 -40 13 -48 5 -83 -24 -73 -62 4 -15 1 -28
-6 -32 -23 -15 3 -30 49 -30 77 0 89 -7 107 -59 9 -25 22 -59 29 -74 l11 -28
24 25 c20 21 21 26 8 26 -9 0 -17 7 -17 15 0 8 5 15 10 15 6 0 10 9 10 20 0
12 7 20 16 20 8 0 23 7 31 16 15 14 17 14 25 0 7 -13 13 -14 30 -5 18 10 20 9
15 -6 -5 -11 -3 -15 5 -13 7 3 13 9 13 14 0 5 4 15 8 22 6 8 2 12 -10 12 -14
0 -15 2 -5 9 11 7 11 9 -2 14 -9 4 -16 16 -16 27 0 14 -11 26 -34 35 -19 8
-39 20 -43 27 -9 15 -48 38 -63 38 -5 0 -10 -7 -10 -15z"/>
<path d="M2070 4750 c0 -5 5 -10 11 -10 5 0 7 5 4 10 -3 6 -8 10 -11 10 -2 0
-4 -4 -4 -10z"/>
<path d="M3372 4722 c-16 -2 -22 -8 -18 -19 3 -8 6 -17 6 -19 0 -2 6 -4 13 -4
18 0 35 -38 36 -77 0 -22 -5 -33 -15 -33 -8 0 -14 -7 -14 -16 0 -13 3 -14 13
-5 8 6 17 8 20 5 3 -4 13 0 21 9 8 8 12 17 9 21 -3 3 0 12 6 20 10 12 10 21
-2 46 -9 16 -12 30 -8 30 5 0 8 10 7 21 -1 23 -26 30 -74 21z"/>
<path d="M3612 4686 c-1 -19 5 -39 13 -46 8 -7 15 -19 15 -26 0 -8 4 -14 9
-14 5 0 9 26 8 58 -2 50 -5 57 -23 60 -17 2 -21 -3 -22 -32z"/>
<path d="M3998 4694 c-6 -23 -3 -182 3 -189 3 -2 24 -7 48 -11 l44 -7 -5 51
c-3 29 -12 58 -22 67 -9 10 -15 23 -13 29 3 7 -7 27 -23 45 -24 30 -27 32 -32
15z"/>
<path d="M2275 4671 c-3 -6 1 -11 10 -11 9 0 13 -4 10 -10 -3 -5 1 -10 10 -10
10 0 15 7 13 17 -4 20 -33 29 -43 14z"/>
<path d="M3143 4644 c-3 -8 -1 -20 6 -27 6 -6 11 -19 11 -29 0 -13 6 -17 23
-14 12 3 25 5 30 5 13 2 7 21 -15 51 -24 33 -45 38 -55 14z"/>
<path d="M2476 4635 c4 -8 10 -12 15 -9 14 8 10 24 -6 24 -9 0 -12 -6 -9 -15z"/>
<path d="M2242 4610 c0 -14 2 -19 5 -12 2 6 2 18 0 25 -3 6 -5 1 -5 -13z"/>
<path d="M4450 4610 c0 -5 5 -10 11 -10 5 0 7 5 4 10 -3 6 -8 10 -11 10 -2 0
-4 -4 -4 -10z"/>
<path d="M1822 4550 c0 -14 2 -19 5 -12 2 6 2 18 0 25 -3 6 -5 1 -5 -13z"/>
<path d="M2468 4523 c-27 -7 -21 -21 11 -28 27 -6 95 2 115 13 28 16 -75 28
-126 15z"/>
<path d="M2780 4490 c-13 -8 -12 -10 3 -10 9 0 17 5 17 10 0 12 -1 12 -20 0z"/>
<path d="M4455 4490 c-3 -5 -1 -10 4 -10 6 0 11 5 11 10 0 6 -2 10 -4 10 -3 0
-8 -4 -11 -10z"/>
<path d="M1776 4439 c-21 -25 -26 -70 -8 -76 8 -3 16 4 19 16 4 16 9 19 18 11
10 -8 14 -4 19 16 4 14 6 27 4 28 -2 1 -10 7 -19 13 -12 10 -19 8 -33 -8z"/>
<path d="M33 4322 c-18 -9 -33 -23 -33 -30 0 -16 78 -92 95 -92 28 0 21 113
-8 132 -15 10 -16 10 -54 -10z"/>
<path d="M4499 4315 c-1 -6 -1 -18 0 -27 1 -10 -3 -18 -8 -18 -6 0 -11 -7 -11
-15 0 -8 7 -15 15 -15 8 0 14 3 13 8 -1 4 2 18 6 31 5 14 4 27 -3 34 -6 6 -12
7 -12 2z"/>
<path d="M3574 4296 c-13 -10 -14 -19 -5 -52 6 -21 11 -49 11 -61 0 -38 -33
-101 -59 -113 -39 -18 -11 -32 75 -38 l77 -5 -6 49 c-5 32 -2 66 8 97 14 47
12 77 -6 77 -5 0 -14 11 -19 24 -10 27 -52 39 -76 22z"/>
<path d="M4528 4253 c7 -3 16 -2 19 1 4 3 -2 6 -13 5 -11 0 -14 -3 -6 -6z"/>
<path d="M4500 4210 c0 -5 5 -10 10 -10 6 0 10 5 10 10 0 6 -4 10 -10 10 -5 0
-10 -4 -10 -10z"/>
<path d="M4462 4201 c-11 -7 -11 -9 2 -14 10 -4 16 -1 16 8 0 17 -1 17 -18 6z"/>
<path d="M3286 4071 c-18 -7 -18 -8 -2 -14 24 -10 68 -8 84 2 10 6 4 10 -18
15 -38 7 -39 7 -64 -3z"/>
<path d="M3448 4053 c7 -3 16 -2 19 1 4 3 -2 6 -13 5 -11 0 -14 -3 -6 -6z"/>
<path d="M0 3831 c1 -169 2 -184 16 -166 8 11 19 19 24 18 5 -2 7 4 4 12 -4 9
0 15 10 15 9 0 16 8 16 18 0 14 2 15 10 2 5 -8 10 -11 10 -6 0 5 7 2 16 -5 14
-11 19 -10 35 10 11 13 19 29 19 36 0 17 19 23 91 30 45 5 60 3 74 -11 14 -15
18 -15 26 -3 15 23 10 49 -8 50 -10 0 -46 0 -80 0 -56 0 -66 3 -100 34 -33 29
-38 39 -39 82 -3 63 -2 60 -20 67 -14 5 -15 4 -5 -8 7 -8 10 -20 6 -26 -11
-18 -25 -11 -25 14 0 22 -4 25 -40 24 l-40 0 0 -187z"/>
<path d="M1347 3900 c3 -11 7 -20 9 -20 2 0 4 9 4 20 0 11 -4 20 -9 20 -5 0
-7 -9 -4 -20z"/>
<path d="M365 3750 c3 -5 8 -10 11 -10 2 0 4 5 4 10 0 6 -5 10 -11 10 -5 0 -7
-4 -4 -10z"/>
<path d="M111 3678 c-12 -13 -16 -14 -48 -17 -15 -1 -14 -3 2 -21 18 -20 17
-20 -11 -20 -17 0 -36 6 -43 13 -10 10 -12 -1 -9 -58 2 -54 6 -70 18 -70 8 0
14 6 12 13 -1 6 2 12 8 12 5 0 10 -7 10 -15 0 -8 5 -15 11 -15 5 0 7 5 4 10
-3 6 -1 10 4 10 6 0 11 -5 11 -10 0 -7 6 -7 20 0 11 6 17 16 14 25 -4 9 0 15
10 15 9 0 16 -4 16 -10 0 -5 5 -10 10 -10 6 0 10 9 10 20 0 11 7 20 15 20 8 0
19 9 25 19 14 26 13 29 -7 27 -15 -1 -17 6 -15 37 3 35 1 37 -26 37 -15 0 -34
-6 -41 -12z m49 -80 c0 -18 -2 -20 -9 -8 -6 8 -7 18 -5 22 9 14 14 9 14 -14z
m-116 -33 c-6 -16 -24 -21 -24 -7 0 11 11 22 21 22 5 0 6 -7 3 -15z m76 11 c0
-11 -19 -15 -25 -6 -3 5 1 10 9 10 9 0 16 -2 16 -4z m-20 -36 c0 -5 -4 -10
-10 -10 -5 0 -10 5 -10 10 0 6 5 10 10 10 6 0 10 -4 10 -10z"/>
<path d="M3774 3677 c-3 -8 -4 -36 -2 -63 l3 -49 46 0 c35 -1 45 3 46 16 1 10
-8 20 -23 23 -17 5 -24 13 -24 30 0 14 6 26 13 29 16 6 7 14 -25 22 -20 5 -29
3 -34 -8z"/>
<path d="M3850 3675 c0 -8 5 -15 10 -15 6 0 10 7 10 15 0 8 -4 15 -10 15 -5 0
-10 -7 -10 -15z"/>
<path d="M5160 3630 c0 -5 5 -10 10 -10 6 0 10 5 10 10 0 6 -4 10 -10 10 -5 0
-10 -4 -10 -10z"/>
<path d="M3613 3619 c-36 -10 -53 -44 -32 -64 8 -8 29 -15 48 -17 31 -3 35 0
42 26 7 25 -6 68 -21 65 -3 0 -19 -5 -37 -10z"/>
<path d="M5180 3590 c0 -5 9 -10 20 -10 11 0 20 5 20 10 0 6 -9 10 -20 10 -11
0 -20 -4 -20 -10z"/>
<path d="M5346 3562 c-3 -3 -6 -19 -6 -35 0 -17 -7 -38 -15 -47 -15 -16 -12
-17 39 -18 59 0 82 19 45 38 -11 6 -18 14 -16 18 14 23 -29 63 -47 44z"/>
<path d="M610 3520 c0 -5 5 -10 10 -10 6 0 10 5 10 10 0 6 -4 10 -10 10 -5 0
-10 -4 -10 -10z"/>
<path d="M150 3510 c-18 -12 -2 -12 25 0 13 6 15 9 5 9 -8 0 -22 -4 -30 -9z"/>
<path d="M5190 3510 c0 -5 5 -10 11 -10 5 0 7 5 4 10 -3 6 -8 10 -11 10 -2 0
-4 -4 -4 -10z"/>
<path d="M225 3500 c-3 -5 3 -10 14 -10 12 0 21 5 21 10 0 6 -6 10 -14 10 -8
0 -18 -4 -21 -10z"/>
<path d="M5590 3477 c-39 -31 -61 -76 -57 -119 l3 -43 8 32 c9 35 43 63 76 63
17 0 20 6 20 40 0 32 -4 40 -17 40 -10 0 -25 -6 -33 -13z"/>
<path d="M5201 3462 c-1 -8 -6 -10 -13 -6 -10 6 -10 4 -2 -7 6 -8 10 -31 8
-51 -1 -24 2 -38 10 -38 7 0 10 15 8 43 -4 49 -9 78 -11 59z"/>
<path d="M5366 3344 c-21 -20 -20 -32 2 -29 36 3 53 16 41 31 -15 18 -24 18
-43 -2z"/>
<path d="M4371 3336 c-10 -11 -7 -14 13 -12 18 1 22 4 14 14 -13 15 -13 15
-27 -2z"/>
<path d="M5182 3328 c5 -13 38 -20 38 -8 0 4 -9 10 -21 13 -12 3 -19 1 -17 -5z"/>
<path d="M5204 3289 c-3 -6 -8 -32 -10 -57 -1 -27 1 -41 6 -33 6 11 9 10 12
-5 3 -10 4 9 4 44 0 34 -2 62 -3 62 -1 0 -5 -5 -9 -11z"/>
<path d="M4812 3260 c0 -14 2 -19 5 -12 2 6 2 18 0 25 -3 6 -5 1 -5 -13z"/>
<path d="M4803 3199 c-6 -16 -8 -27 -5 -26 6 2 13 -9 11 -15 0 -2 -2 -10 -4
-18 -2 -8 -7 -24 -11 -35 -7 -17 -6 -18 8 -5 9 8 14 18 12 22 -3 4 4 16 14 26
17 17 17 20 3 30 -15 10 -14 13 2 25 17 14 17 15 -1 19 -14 4 -22 -3 -29 -23z"/>
<path d="M5340 3150 c0 -5 5 -10 10 -10 16 0 12 -47 -5 -54 -18 -7 -20 -36 -2
-36 22 0 70 37 57 45 -6 4 -9 14 -6 22 4 9 1 22 -5 29 -13 16 -49 19 -49 4z"/>
<path d="M5203 3143 c-7 -2 -13 -12 -12 -21 0 -11 2 -12 6 -4 2 6 11 12 19 12
8 0 14 5 14 10 0 11 -7 12 -27 3z"/>
<path d="M1148 3106 c-16 -8 -28 -13 -28 -10 0 2 -22 -7 -50 -21 -27 -14 -55
-25 -62 -25 -7 0 -24 -9 -38 -20 -23 -18 -23 -20 -5 -20 18 0 79 26 115 49 8
5 26 12 40 15 26 6 82 45 65 46 -5 0 -22 -7 -37 -14z"/>
<path d="M870 2998 c-38 -10 -63 -28 -40 -28 9 0 8 -5 -6 -15 -33 -25 6 -18
63 13 76 39 67 54 -17 30z"/>
<path d="M770 2940 c0 -5 7 -10 16 -10 8 0 12 5 9 10 -3 6 -10 10 -16 10 -5 0
-9 -4 -9 -10z"/>
<path d="M5330 2930 c0 -5 5 -10 10 -10 6 0 10 5 10 10 0 6 -4 10 -10 10 -5 0
-10 -4 -10 -10z"/>
<path d="M735 2920 c-4 -6 -15 -10 -25 -10 -11 0 -39 -9 -62 -19 -39 -18 -74
-32 -88 -36 -28 -7 -90 -49 -87 -58 5 -15 47 -10 68 9 8 8 18 14 21 14 3 0 44
18 91 40 46 22 89 40 95 40 18 0 23 17 7 24 -8 3 -17 1 -20 -4z"/>
<path d="M4583 2906 c-13 -15 -7 -26 14 -26 8 0 11 5 8 10 -3 6 -2 10 3 10 9
0 22 -23 22 -37 0 -3 -9 -3 -20 0 -11 3 -20 1 -20 -3 0 -15 24 -16 52 -2 23
11 32 11 43 2 23 -19 17 -3 -10 28 -27 31 -73 39 -92 18z"/>
<path d="M4525 2890 c-18 -8 -17 -9 8 -9 15 -1 27 4 27 9 0 12 -8 12 -35 0z"/>
<path d="M4380 2875 c-22 -26 -5 -45 35 -40 61 7 71 22 28 43 -35 16 -48 15
-63 -3z"/>
<path d="M440 2779 c0 -5 5 -7 10 -4 6 3 10 8 10 11 0 2 -4 4 -10 4 -5 0 -10
-5 -10 -11z"/>
<path d="M4250 2699 c0 -5 5 -7 10 -4 6 3 10 8 10 11 0 2 -4 4 -10 4 -5 0 -10
-5 -10 -11z"/>
<path d="M4280 2700 c0 -5 5 -10 11 -10 5 0 7 5 4 10 -3 6 -8 10 -11 10 -2 0
-4 -4 -4 -10z"/>
<path d="M4315 2699 c-9 -14 -2 -20 14 -10 8 6 9 11 3 15 -6 3 -14 1 -17 -5z"/>
<path d="M4357 2704 c-9 -10 2 -24 18 -24 9 0 12 6 9 15 -6 16 -17 19 -27 9z"/>
<path d="M210 2670 c0 -13 11 -13 30 0 12 8 11 10 -7 10 -13 0 -23 -4 -23 -10z"/>
<path d="M170 2661 c-8 -6 -18 -7 -22 -5 -4 3 -8 0 -8 -7 0 -6 -8 -9 -20 -6
-10 3 -21 0 -23 -6 -1 -5 -16 -10 -32 -11 -17 -1 -29 -6 -28 -12 1 -7 -5 -10
-15 -7 -14 3 -18 -3 -20 -26 -2 -30 10 -41 23 -21 3 6 15 10 25 10 10 0 20 3
22 8 2 4 30 21 63 38 32 18 61 37 63 43 4 13 -8 14 -28 2z"/>
<path d="M1531 2614 c0 -11 3 -14 6 -6 3 7 2 16 -1 19 -3 4 -6 -2 -5 -13z"/>
<path d="M3860 2612 c0 -34 60 -93 88 -85 13 3 22 1 22 -6 0 -6 -8 -8 -17 -4
-16 6 -16 5 -4 -11 11 -13 16 -14 23 -4 6 10 10 10 19 -2 9 -13 10 -13 6 2 -9
26 4 29 24 5 l19 -22 -10 28 c-12 35 -13 47 0 27 5 -8 12 -11 16 -7 4 4 0 15
-9 24 -14 14 -18 14 -34 2 -16 -13 -17 -12 -5 3 8 10 9 19 3 22 -5 3 -12 0
-14 -6 -3 -8 -6 -5 -6 6 -1 12 -6 16 -16 13 -8 -4 -17 -1 -21 4 -3 6 -15 9
-25 6 -11 -3 -19 -1 -19 5 0 5 -5 6 -11 2 -6 -3 -15 0 -20 7 -6 10 -9 8 -9 -9z"/>
<path d="M5402 2581 c4 -13 18 -16 19 -4 0 4 -5 9 -11 12 -7 2 -11 -2 -8 -8z"/>
<path d="M4331 2554 c0 -11 3 -14 6 -6 3 7 2 16 -1 19 -3 4 -6 -2 -5 -13z"/>
<path d="M4062 2535 c-11 -24 0 -36 13 -15 3 6 24 10 46 10 29 0 39 4 39 16 0
14 -3 14 -15 4 -12 -10 -19 -10 -27 -2 -20 20 -44 14 -56 -13z"/>
<path d="M4178 2520 c5 -34 17 -32 24 5 4 19 1 25 -12 25 -13 0 -16 -7 -12
-30z"/>
<path d="M5391 2508 l-44 -43 84 -11 c46 -6 112 -14 147 -17 61 -7 62 -6 62
17 0 17 -9 28 -29 37 -17 7 -33 22 -36 34 -7 18 -8 19 -12 2 -5 -18 -5 -18
-19 0 -13 17 -13 17 -14 0 0 -17 -1 -17 -17 -2 -11 11 -26 15 -44 11 -15 -3
-29 -1 -31 4 -2 6 -23 -9 -47 -32z"/>
<path d="M4260 2530 c0 -5 9 -10 21 -10 16 0 20 -4 14 -17 -4 -13 -3 -15 5 -7
15 15 2 44 -21 44 -10 0 -19 -4 -19 -10z"/>
<path d="M4076 2504 c-5 -14 -4 -15 9 -4 17 14 19 20 6 20 -5 0 -12 -7 -15
-16z"/>
<path d="M4110 2490 c-8 -5 -10 -10 -5 -10 6 0 17 5 25 10 8 5 11 10 5 10 -5
0 -17 -5 -25 -10z"/>
<path d="M5170 2486 c0 -8 61 -12 66 -4 3 4 -11 8 -30 8 -20 0 -36 -2 -36 -4z"/>
<path d="M1575 2319 c-10 -30 0 -33 13 -4 6 14 7 25 2 25 -5 0 -12 -9 -15 -21z"/>
<path d="M1660 2310 l-25 -8 28 -1 c15 -1 27 4 27 9 0 6 -1 10 -2 9 -2 -1 -14
-5 -28 -9z"/>
<path d="M4125 2310 c3 -5 8 -10 11 -10 2 0 4 5 4 10 0 6 -5 10 -11 10 -5 0
-7 -4 -4 -10z"/>
<path d="M4430 2311 c0 -6 5 -13 10 -16 6 -3 10 -14 10 -25 0 -15 64 -60 86
-60 13 0 -11 22 -34 32 -25 10 -26 11 -7 18 12 5 14 9 6 9 -8 1 -11 4 -8 8 4
3 -5 15 -20 25 -31 20 -43 22 -43 9z"/>
<path d="M4180 2271 c0 -10 19 -25 25 -20 1 2 -3 10 -11 17 -8 7 -14 8 -14 3z"/>
<path d="M1687 2246 c-10 -25 -9 -96 1 -96 5 0 15 11 22 25 11 21 11 30 -1 57
-13 26 -17 29 -22 14z"/>
<path d="M2206 2182 c-29 -17 -85 -71 -86 -83 0 -4 9 -9 20 -12 24 -6 27 -37
4 -37 -20 0 -13 -23 9 -26 21 -3 29 8 57 81 13 33 28 64 32 70 10 11 10 25 1
25 -5 0 -21 -8 -37 -18z"/>
<path d="M4551 2164 c0 -11 3 -14 6 -6 3 7 2 16 -1 19 -3 4 -6 -2 -5 -13z"/>
<path d="M5500 2072 c42 -14 130 -22 130 -12 0 6 -20 10 -44 10 -24 0 -59 2
-77 5 -28 4 -30 4 -9 -3z"/>
<path d="M2058 2056 c-23 -17 -23 -26 1 -26 30 0 51 11 51 26 0 18 -29 18 -52
0z"/>
<path d="M4640 2022 c0 -15 -5 -20 -15 -16 -24 9 -18 -20 10 -50 29 -31 64
-34 88 -5 14 16 15 19 3 17 -8 -2 -31 14 -50 36 -31 33 -36 35 -36 18z"/>
<path d="M4381 1994 c0 -11 3 -14 6 -6 3 7 2 16 -1 19 -3 4 -6 -2 -5 -13z"/>
<path d="M4495 1980 c3 -5 8 -10 11 -10 2 0 4 5 4 10 0 6 -5 10 -11 10 -5 0
-7 -4 -4 -10z"/>
<path d="M4530 1974 c0 -8 5 -12 10 -9 6 4 8 11 5 16 -9 14 -15 11 -15 -7z"/>
<path d="M4570 1970 c0 -24 15 -27 24 -4 9 22 8 24 -9 24 -8 0 -15 -9 -15 -20z"/>
<path d="M5048 1933 c7 -3 16 -2 19 1 4 3 -2 6 -13 5 -11 0 -14 -3 -6 -6z"/>
<path d="M5298 1923 c6 -2 18 -2 25 0 6 3 1 5 -13 5 -14 0 -19 -2 -12 -5z"/>
<path d="M5345 1920 c3 -5 8 -10 11 -10 2 0 4 5 4 10 0 6 -5 10 -11 10 -5 0
-7 -4 -4 -10z"/>
<path d="M5371 1915 c8 -7 78 -9 85 -2 4 4 -14 7 -41 7 -27 0 -46 -2 -44 -5z"/>
<path d="M5488 1898 c5 -5 16 -8 23 -6 8 3 3 7 -10 11 -17 4 -21 3 -13 -5z"/>
<path d="M5548 1893 c6 -2 18 -2 25 0 6 3 1 5 -13 5 -14 0 -19 -2 -12 -5z"/>
<path d="M3677 1813 c-10 -16 -27 -156 -22 -173 4 -13 16 -17 43 -17 34 1 39
-2 57 -41 25 -51 42 -59 57 -27 15 32 30 27 40 -13 9 -36 11 -36 39 -22 15 8
23 7 36 -5 26 -27 39 -1 15 32 -11 15 -30 49 -42 75 -23 50 -67 77 -89 55 -8
-8 -11 -8 -11 2 0 9 -4 8 -15 -3 -8 -8 -15 -19 -15 -25 0 -5 -5 -13 -11 -17
-8 -4 -9 1 -4 17 25 77 24 86 -13 128 -34 39 -55 50 -65 34z"/>
<path d="M4890 1729 c0 -5 5 -7 10 -4 6 3 10 8 10 11 0 2 -4 4 -10 4 -5 0 -10
-5 -10 -11z"/>
<path d="M4928 1733 c6 -2 12 -11 12 -19 0 -8 5 -14 11 -14 6 0 8 7 5 16 -3 9
-6 18 -6 20 0 2 -8 4 -17 3 -11 0 -13 -3 -5 -6z"/>
<path d="M5048 1723 c7 -3 16 -2 19 1 4 3 -2 6 -13 5 -11 0 -14 -3 -6 -6z"/>
<path d="M5138 1713 c12 -2 32 -2 45 0 12 2 2 4 -23 4 -25 0 -35 -2 -22 -4z"/>
<path d="M4900 1700 c0 -5 7 -10 16 -10 8 0 12 5 9 10 -3 6 -10 10 -16 10 -5
0 -9 -4 -9 -10z"/>
<path d="M5280 1700 c0 -5 12 -10 28 -9 24 0 25 1 7 9 -27 12 -35 12 -35 0z"/>
<path d="M5368 1693 c6 -2 18 -2 25 0 6 3 1 5 -13 5 -14 0 -19 -2 -12 -5z"/>
<path d="M5538 1683 c12 -2 32 -2 45 0 12 2 2 4 -23 4 -25 0 -35 -2 -22 -4z"/>
<path d="M12 1570 c-7 -11 -8 -20 -4 -20 5 0 17 9 27 20 14 15 15 20 4 20 -8
0 -20 -9 -27 -20z"/>
<path d="M2310 1491 c-19 -20 -79 -75 -132 -121 -54 -46 -96 -86 -93 -88 2 -3
30 19 61 47 31 29 75 61 98 73 22 11 46 27 52 35 9 13 15 13 47 -1 34 -14 55
-45 22 -32 -8 3 -14 0 -12 -7 1 -7 -3 -11 -10 -10 -6 1 -26 -16 -45 -38 -18
-23 -50 -59 -70 -80 -21 -21 -38 -41 -38 -44 0 -3 -27 -31 -60 -62 -33 -31
-63 -66 -66 -79 -4 -13 -10 -24 -15 -24 -5 0 -9 -7 -9 -15 0 -8 -4 -15 -10
-15 -5 0 -10 -8 -10 -19 0 -21 -23 -44 -34 -34 -4 4 -4 0 -1 -9 4 -11 -2 -22
-19 -33 -14 -10 -26 -21 -26 -26 0 -5 -18 -28 -40 -51 -23 -23 -39 -47 -36
-55 3 -7 1 -13 -4 -13 -6 0 -10 -7 -10 -15 0 -8 -4 -15 -9 -15 -5 0 -11 -9
-14 -21 -5 -18 -3 -18 11 -7 30 24 38 32 75 88 21 30 45 64 55 76 9 11 25 31
35 45 9 13 45 62 80 107 34 46 79 107 99 135 39 53 169 183 206 204 17 10 24
10 35 -1 8 -8 22 -16 32 -18 10 -2 29 -14 43 -27 l24 -24 -34 -31 c-35 -32
-108 -128 -108 -141 0 -14 39 27 45 46 4 11 11 19 17 19 6 0 3 -12 -7 -26 -9
-14 -14 -28 -12 -31 3 -2 11 6 18 19 7 12 27 41 45 62 19 22 32 41 29 44 -7 8
23 32 40 32 8 0 18 -7 22 -15 3 -9 26 -27 52 -40 25 -13 39 -24 31 -25 -9 0
-26 7 -38 16 -12 8 -28 14 -35 11 -6 -2 4 -11 24 -20 38 -16 59 -37 38 -37 -7
0 -21 -7 -31 -17 -10 -9 -18 -11 -18 -5 0 6 5 14 10 17 15 9 12 19 -11 33 -18
12 -24 11 -39 -6 -21 -23 -35 -62 -22 -62 6 0 13 6 15 13 4 9 6 9 6 -1 1 -7 6
-10 11 -7 6 3 10 -1 10 -9 0 -32 24 -28 57 9 18 20 33 41 33 45 0 4 7 11 16
14 8 3 12 2 9 -3 -3 -5 -1 -12 5 -16 5 -3 10 -1 10 5 0 6 5 8 10 5 6 -4 7 -12
3 -18 -4 -6 -8 -20 -8 -29 -1 -10 -9 -26 -18 -35 -18 -20 -40 -73 -30 -73 13
0 58 74 55 90 0 3 9 17 20 30 11 14 16 19 12 11 -5 -11 -3 -13 10 -8 15 6 17
3 12 -17 -5 -22 0 -27 44 -47 28 -12 50 -26 50 -31 0 -8 -48 10 -65 24 -16 14
-24 9 -40 -23 -9 -17 -19 -28 -22 -25 -3 3 0 12 7 21 7 9 10 19 6 22 -8 8 -26
-15 -26 -33 0 -17 24 -34 53 -36 14 -1 24 -5 21 -9 -2 -4 3 -9 11 -13 17 -6
15 -25 -7 -77 l-16 -37 -61 31 c-34 16 -64 28 -67 25 -2 -3 11 -13 31 -22 19
-10 34 -20 31 -24 -2 -4 7 -8 21 -8 13 -1 27 -5 30 -8 6 -6 -33 -95 -46 -106
-3 -3 -14 -21 -23 -41 -13 -28 -14 -39 -5 -49 10 -10 8 -12 -7 -6 -13 4 -17 2
-13 -8 3 -8 -1 -17 -10 -20 -8 -4 -13 -13 -9 -21 3 -8 1 -17 -4 -20 -5 -3 -21
-31 -36 -63 -15 -31 -37 -73 -50 -92 -13 -19 -24 -42 -24 -50 0 -9 -9 -26 -20
-38 -11 -12 -20 -27 -20 -34 -1 -38 -17 -39 -85 -3 -76 39 -75 39 -75 25 0 -5
7 -10 15 -10 8 0 15 -3 15 -8 0 -4 22 -17 50 -30 27 -12 51 -26 54 -30 2 -4
-4 -19 -15 -32 l-19 -25 -6 22 c-4 13 -11 23 -16 23 -5 0 -29 9 -54 20 -24 12
-49 18 -53 15 -11 -6 -25 24 -22 45 2 10 -2 9 -13 -5 -8 -11 -16 -26 -16 -32
0 -7 -8 -21 -18 -31 -10 -10 -29 -44 -42 -75 -13 -32 -28 -57 -33 -57 -5 0 -7
-6 -4 -12 7 -20 -12 -48 -31 -48 -11 0 -13 -3 -6 -8 13 -8 2 -46 -15 -57 -6
-3 -11 -13 -11 -22 0 -23 26 2 34 32 7 28 31 32 60 10 31 -23 13 -47 -29 -39
-23 4 -35 2 -35 -5 0 -17 81 -14 94 4 10 13 14 13 40 0 15 -8 37 -15 48 -15
17 0 18 3 8 15 -6 8 -9 19 -6 24 4 5 2 12 -3 15 -5 3 -12 -1 -15 -9 -5 -14 -9
-14 -32 1 -22 15 -23 19 -9 26 11 7 30 4 59 -8 39 -16 43 -21 35 -41 l-9 -23
316 0 c300 0 316 1 303 18 -13 16 -13 16 7 0 27 -23 94 -24 94 -2 0 11 8 14
33 11 17 -2 31 -9 30 -16 -2 -8 27 -11 98 -11 55 0 98 4 95 8 -2 4 0 14 5 22
8 13 10 13 18 0 5 -8 7 -19 3 -25 -3 -5 1 -4 10 3 11 9 18 10 23 2 3 -6 43
-10 92 -10 72 0 84 2 79 15 -4 10 3 19 18 25 24 9 24 10 9 52 -8 23 -13 53
-10 65 5 26 -3 29 -22 10 -10 -10 -16 -8 -31 10 -22 28 -30 29 -30 3 0 -11 -6
-20 -12 -20 -10 0 -10 -3 0 -9 9 -5 -7 -9 -42 -9 -33 0 -56 4 -56 10 0 6 -8
17 -17 24 -25 18 -13 24 27 15 27 -5 39 -3 52 10 9 10 14 20 11 23 -4 3 3 6
14 6 11 0 20 6 21 13 0 6 7 30 16 52 8 22 15 50 16 63 0 12 5 22 10 22 7 0 7
7 0 20 -6 11 -15 18 -20 15 -5 -3 -17 8 -26 25 -17 28 -34 25 -34 -5 0 -5 4
-4 9 4 7 11 11 8 16 -10 10 -30 9 -32 -10 -35 -11 -2 -15 3 -11 12 3 8 2 13
-3 9 -5 -3 -17 2 -25 11 -15 14 -17 14 -22 0 -3 -9 -11 -16 -16 -16 -6 0 -4
10 4 22 8 13 18 37 22 53 5 21 4 26 -3 15 -9 -13 -12 -12 -25 5 -8 11 -10 22
-5 23 5 2 9 10 9 18 0 9 5 12 13 8 9 -5 9 -4 1 5 -11 12 -44 5 -44 -10 0 -12
-51 -69 -62 -69 -17 0 -3 35 23 60 14 14 31 35 38 48 7 12 16 20 22 17 5 -4 9
-2 9 3 0 6 11 12 23 16 23 5 24 9 30 160 5 128 4 159 -9 185 -21 42 -38 51
-32 17 3 -14 1 -26 -4 -26 -5 0 -6 -4 -3 -10 12 -20 -7 -32 -20 -13 -13 16
-14 15 -11 -11 2 -16 10 -33 20 -38 9 -5 15 -18 13 -31 -2 -12 -2 -16 0 -9 4
10 33 18 33 8 0 -40 -74 -156 -99 -156 -6 0 -11 -5 -11 -11 0 -18 -74 -163
-92 -181 -10 -10 -18 -23 -18 -30 0 -6 -3 -8 -7 -5 -4 4 -13 -7 -20 -24 -8
-19 -17 -28 -25 -23 -8 5 -9 2 -5 -10 6 -14 3 -17 -9 -12 -11 4 -15 2 -11 -8
8 -20 -61 -109 -76 -99 -18 11 -38 12 -31 2 9 -15 -15 -39 -32 -32 -9 3 -12
13 -8 25 6 19 5 19 -15 -1 -12 -12 -21 -27 -21 -33 0 -9 -4 -8 -11 2 -9 12
-10 11 -6 -6 4 -17 0 -20 -26 -16 -21 3 -28 1 -23 -7 4 -6 2 -12 -3 -12 -6 -1
-16 -2 -22 -3 -6 0 -17 -10 -25 -20 -8 -11 -14 -16 -14 -12 0 19 43 66 60 66
10 0 20 3 22 8 7 16 84 69 96 66 7 -1 8 0 2 3 -17 8 -11 27 23 65 17 20 46 53
62 73 17 20 38 46 48 56 9 10 17 21 17 24 0 2 16 20 35 39 19 20 35 40 35 46
0 5 5 10 10 10 6 0 10 6 10 14 0 8 4 16 9 18 5 2 11 14 13 28 2 20 -2 26 -20
28 -14 2 -30 -4 -38 -15 -14 -17 -15 -17 -9 5 7 23 -9 32 -18 10 -3 -8 -6 -6
-6 5 -2 29 -20 18 -53 -35 -17 -26 -17 -27 1 -25 11 1 18 4 15 9 -2 4 5 12 17
19 20 10 21 9 17 -14 -3 -16 0 -28 8 -31 8 -3 14 0 14 7 0 8 4 6 10 -3 15 -23
12 -29 -10 -23 -25 7 -50 -13 -50 -38 0 -11 -7 -19 -16 -19 -8 0 -13 -4 -10
-9 3 -4 -6 -6 -19 -3 -14 2 -25 11 -25 21 0 13 -2 13 -9 2 -6 -9 -18 -11 -36
-7 -23 6 -25 5 -13 -8 7 -7 16 -12 21 -9 10 6 9 -2 -5 -32 -11 -24 -28 -34
-28 -16 0 5 -10 11 -21 14 -16 4 -20 11 -15 23 6 17 6 17 -11 2 -14 -13 -22
-14 -38 -6 -19 11 -19 10 -3 -8 24 -27 9 -46 -30 -38 -35 7 -41 26 -14 46 23
18 26 54 4 62 -9 3 -23 9 -31 12 -9 4 -11 2 -7 -5 5 -7 -1 -11 -14 -11 -12 0
-19 -4 -15 -10 3 -5 0 -18 -7 -29 -11 -18 -14 -18 -40 -5 -34 17 -36 9 -5 -17
18 -16 19 -18 3 -12 -13 4 -17 3 -12 -5 5 -8 -3 -12 -23 -12 -17 0 -30 -4 -28
-9 3 -11 -42 -51 -58 -51 -7 0 -18 -7 -25 -15 -7 -8 -18 -15 -24 -15 -7 0 -7
3 -1 8 20 14 65 81 65 96 0 34 11 45 36 36 15 -6 24 -6 24 0 0 6 -6 10 -14 10
-20 0 -27 27 -11 40 11 9 23 9 50 0 20 -7 39 -9 43 -6 3 4 -4 9 -16 13 -12 3
-22 9 -22 14 0 5 -9 9 -21 9 -11 0 -17 4 -14 10 4 6 17 4 35 -5 34 -17 40 -18
40 -6 0 5 -13 12 -30 16 -29 6 -37 15 -23 28 3 4 15 0 25 -10 10 -9 18 -12 18
-7 0 5 4 3 9 -5 6 -9 15 -11 27 -6 11 5 22 9 26 9 4 1 14 10 22 21 14 18 14
18 4 -12 -11 -29 -10 -34 13 -52 13 -11 35 -20 49 -20 22 0 23 1 8 10 -15 8
-16 13 -5 29 6 11 17 20 23 20 6 0 22 11 36 24 14 12 34 26 44 31 16 6 12 11
-24 27 -45 20 -52 20 -56 -4 -2 -19 -59 -108 -68 -108 -11 0 -10 7 8 42 13 25
13 32 3 39 -7 4 -16 6 -20 3 -4 -2 -12 3 -19 11 -10 12 -9 15 6 15 16 0 16 2
4 10 -23 14 -6 22 24 10 34 -12 49 -13 41 -1 -3 5 -19 12 -35 16 -18 4 -30 13
-30 22 0 13 -3 13 -15 3 -12 -10 -15 -10 -15 0 0 8 -3 10 -7 7 -10 -10 -33 13
-33 34 0 10 4 20 10 24 8 5 46 -11 60 -25 6 -6 73 -30 83 -30 4 0 7 4 7 8 0 5
-27 17 -60 27 -71 22 -86 35 -70 65 6 11 14 18 19 16 4 -3 6 8 5 25 -1 19 3
29 12 29 8 0 14 3 15 8 0 6 6 35 13 67 1 6 7 19 13 30 9 16 15 17 36 8 19 -9
24 -17 20 -32 -3 -12 -13 -21 -23 -21 -10 0 -25 -13 -33 -29 -14 -27 -13 -31
7 -49 11 -10 38 -23 58 -29 35 -10 37 -9 43 16 3 14 8 33 10 41 3 10 -6 20
-25 28 -27 12 -28 15 -15 29 10 9 22 12 33 7 9 -4 19 -8 22 -9 3 -1 16 -7 30
-13 l25 -11 -25 -2 c-17 -1 -20 -3 -7 -6 9 -2 17 -8 17 -13 0 -5 -7 -7 -15 -4
-13 6 -32 -24 -40 -62 -7 -33 -19 -60 -29 -66 -14 -9 39 -29 59 -22 20 8 9 24
-16 24 -11 0 -18 4 -15 9 3 5 15 7 26 4 14 -4 20 0 20 11 0 10 7 16 16 14 9
-2 20 7 25 20 5 12 5 22 -1 22 -5 0 -11 -8 -13 -17 -3 -10 -4 1 -3 24 1 36 4
43 21 44 l20 0 -20 9 -20 9 20 0 c11 1 52 -5 90 -12 108 -21 129 -18 135 18 3
17 11 30 19 30 8 0 16 6 19 13 2 8 -2 10 -13 6 -13 -5 -16 -2 -13 12 2 12 14
21 33 24 20 3 31 12 33 25 2 17 1 18 -10 5 -16 -19 -48 -25 -48 -9 0 8 -3 9
-13 0 -8 -6 -16 -9 -19 -6 -3 3 -35 6 -72 6 -36 1 -68 5 -71 9 -3 5 -14 6 -25
3 -11 -3 -20 0 -20 6 0 6 -9 11 -19 11 -11 0 -26 6 -33 13 -21 19 -128 68
-138 62 -5 -3 -15 4 -23 15 -9 14 -21 18 -33 14 -15 -4 -16 -4 -5 4 11 8 3 17
-37 42 -57 35 -66 45 -26 30 14 -6 29 -8 34 -5 4 2 31 -2 59 -9 29 -7 48 -9
43 -4 -11 11 -184 48 -194 42 -7 -5 -112 49 -138 70 -8 7 -51 21 -95 30 -44
10 -98 25 -120 33 -22 8 -44 17 -50 19 -5 1 -26 -14 -45 -35z m90 -25 c0 -2
-8 -10 -17 -17 -16 -13 -17 -12 -4 4 13 16 21 21 21 13z m192 -68 c-5 -5 -16
-6 -26 -2 -13 5 -14 9 -5 20 9 11 15 12 26 3 8 -7 10 -16 5 -21z m-81 -18 c6
0 7 -5 4 -11 -5 -7 -14 -4 -26 7 -15 13 -17 19 -7 26 8 4 14 2 16 -7 2 -8 8
-15 13 -15z m132 -22 c-7 -14 -33 4 -33 23 0 18 1 18 18 2 11 -10 17 -21 15
-25z m-63 4 c-1 -18 -18 -32 -33 -26 -17 6 -23 35 -11 47 8 7 44 -10 44 -21z
m91 -19 c-12 -20 -14 -14 -5 12 4 9 9 14 11 11 3 -2 0 -13 -6 -23z m-52 -2
c14 -9 9 -41 -6 -41 -19 1 -35 19 -30 34 7 18 16 20 36 7z m81 -6 c0 -8 -4
-15 -10 -15 -5 0 -7 7 -4 15 4 8 8 15 10 15 2 0 4 -7 4 -15z m-16 -50 c-7 -17
-13 -18 -32 -7 -7 5 -10 16 -6 25 5 13 10 14 25 7 10 -6 16 -17 13 -25z m109
0 c-3 -9 -8 -14 -10 -11 -3 3 -2 9 2 15 9 16 15 13 8 -4z m18 -18 c-10 -9 -11
-8 -5 6 3 10 9 15 12 12 3 -3 0 -11 -7 -18z m57 -10 c7 -8 7 -18 2 -27 -8 -13
-12 -13 -27 3 -11 11 -13 17 -5 17 7 0 10 5 7 10 -9 15 11 12 23 -3z m-88 -22
c0 -8 5 -15 11 -15 5 0 7 -5 3 -12 -6 -9 -9 -9 -12 0 -2 7 -8 10 -12 7 -5 -3
-8 4 -7 15 1 23 17 28 17 5z m146 -6 c10 -17 -13 -36 -27 -22 -12 12 -4 33 11
33 5 0 12 -5 16 -11z m-82 -15 c18 -7 21 -30 6 -39 -15 -9 -40 14 -33 31 6 16
6 16 27 8z m-249 -14 c-3 -5 -12 -10 -18 -10 -7 0 -6 4 3 10 19 12 23 12 15 0z
m303 -18 c17 -11 4 -42 -14 -35 -8 3 -14 14 -14 24 0 20 8 23 28 11z m-94 -33
c-3 -5 -10 -7 -15 -3 -5 3 -7 10 -3 15 3 5 10 7 15 3 5 -3 7 -10 3 -15z m62
-24 c17 -13 16 -14 -13 -4 -34 11 -42 19 -20 19 7 0 22 -7 33 -15z m329 -5 c3
-5 1 -10 -4 -10 -6 0 -11 5 -11 10 0 6 2 10 4 10 3 0 8 -4 11 -10z m125 -20
c0 -5 -2 -10 -4 -10 -3 0 -8 5 -11 10 -3 6 -1 10 4 10 6 0 11 -4 11 -10z
m-162 -34 c-7 -8 -15 -12 -17 -11 -5 6 10 25 20 25 5 0 4 -6 -3 -14z m-41 -2
c-3 -3 -12 -4 -19 -1 -8 3 -5 6 6 6 11 1 17 -2 13 -5z m319 -150 c-3 -9 -6
-20 -6 -25 0 -5 -4 -9 -9 -9 -4 0 -6 11 -3 25 2 14 9 25 14 25 6 0 7 -7 4 -16z
m-386 -4 c0 -5 -7 -7 -15 -4 -8 4 -15 8 -15 10 0 2 7 4 15 4 8 0 15 -4 15 -10z
m-219 -134 c-6 -7 -7 -16 -3 -21 4 -4 -5 -5 -19 -2 -22 6 -28 3 -32 -14 -3
-12 -10 -18 -15 -15 -6 3 -13 1 -15 -4 -3 -6 -4 -5 -2 2 1 7 8 12 15 10 11 -3
11 0 0 12 -9 12 -9 16 -1 16 7 0 9 4 6 10 -3 5 -1 19 5 30 10 19 12 19 41 4
23 -11 28 -18 20 -28z m359 -150 c0 -11 -19 -15 -25 -6 -3 5 1 10 9 10 9 0 16
-2 16 -4z m-322 -34 c2 -7 -2 -10 -12 -6 -9 3 -16 11 -16 16 0 13 23 5 28 -10z
m-21 -39 c2 -6 -4 -13 -13 -17 -21 -8 -26 -3 -18 18 7 18 25 17 31 -1z m243
-12 c0 -6 -9 -9 -20 -8 -11 1 -20 5 -20 9 0 4 9 8 20 8 11 0 20 -4 20 -9z
m-276 -37 c3 -8 2 -12 -4 -9 -6 3 -10 -1 -10 -9 0 -21 -19 -21 -27 0 -3 9 0
20 8 25 20 12 26 11 33 -7z m186 0 c6 -7 -32 -74 -42 -74 -16 0 -48 20 -48 31
0 5 11 2 25 -7 28 -18 35 -3 10 22 -22 23 -8 47 24 39 14 -4 28 -9 31 -11z
m385 -15 c8 -12 -24 -51 -36 -43 -16 9 -10 24 7 17 13 -5 15 -2 9 15 -7 23 8
31 20 11z m-115 -59 c-9 -35 -14 -40 -32 -35 -17 6 -19 4 -13 -14 6 -20 -2
-26 -27 -22 -5 0 -8 -3 -8 -9 0 -5 -11 -10 -25 -10 -14 0 -25 4 -25 8 0 5 11
19 25 32 14 13 25 18 25 12 0 -7 5 -12 11 -12 6 0 8 7 5 17 -5 11 6 29 31 55
42 43 49 39 33 -22z m-500 20 c0 -5 -2 -10 -4 -10 -3 0 -8 5 -11 10 -3 6 -1
10 4 10 6 0 11 -4 11 -10z m-26 -16 c5 -14 4 -15 -9 -4 -17 14 -19 20 -6 20 5
0 12 -7 15 -16z m596 1 c10 -11 9 -17 -3 -29 -13 -14 -17 -14 -27 -1 -13 15
-7 45 8 45 5 0 15 -7 22 -15z m-404 -9 c29 -22 13 -26 -21 -5 -17 11 -23 19
-14 19 8 0 24 -6 35 -14z m-356 -10 c0 -3 -4 -8 -10 -11 -5 -3 -10 -1 -10 4 0
6 5 11 10 11 6 0 10 -2 10 -4z m721 -54 c-7 -14 -17 -19 -28 -15 -11 4 -14 3
-9 -5 4 -7 0 -19 -8 -28 -14 -14 -18 -14 -31 0 -13 13 -11 19 22 56 32 35 39
39 51 26 11 -10 11 -18 3 -34z m75 -14 c-9 -15 -11 -15 -22 0 -17 23 -31 6
-16 -18 6 -11 9 -26 6 -35 -5 -11 -2 -14 10 -9 11 4 16 1 16 -11 0 -9 -4 -13
-10 -10 -5 3 -10 -2 -11 -12 0 -16 -1 -16 -9 2 -4 11 -17 30 -29 42 -12 12
-21 25 -21 29 0 4 17 24 37 45 36 37 37 37 48 16 8 -15 8 -27 1 -39z m-485 25
c-12 -20 -14 -14 -5 12 4 9 9 14 11 11 3 -2 0 -13 -6 -23z m-35 -22 c-3 -5 1
-12 10 -15 8 -3 13 -2 10 2 -3 5 1 9 9 9 10 0 11 -5 4 -19 -6 -10 -14 -16 -19
-13 -6 3 -7 -1 -4 -9 7 -19 -7 -21 -24 -4 -9 9 -12 9 -12 1 0 -7 5 -15 10 -18
13 -8 12 -16 -4 -38 -19 -25 -60 -6 -51 24 6 18 -10 28 -17 10 -1 -4 -12 -5
-23 0 -18 7 -18 8 5 8 20 1 22 3 10 11 -13 8 -13 10 1 10 9 0 19 -3 23 -7 20
-20 42 -8 37 21 -1 5 6 6 15 2 14 -5 15 -4 5 8 -9 11 -9 15 1 19 19 8 20 8 14
-2z m-525 -56 c5 4 9 2 9 -3 0 -13 56 -33 66 -24 4 4 4 -6 0 -23 -6 -28 -5
-29 8 -11 25 31 48 1 26 -34 -8 -12 -11 -12 -28 3 -10 9 -23 17 -28 17 -5 0
-18 8 -29 17 -19 15 -19 15 10 9 28 -7 29 -6 10 7 -11 8 -31 17 -45 21 -14 3
-19 3 -12 0 23 -11 12 -23 -18 -19 -16 2 -30 -1 -30 -6 0 -5 -5 -9 -11 -9 -8
0 -8 4 0 14 6 8 11 18 9 22 -1 5 4 20 11 32 l13 24 15 -21 c8 -12 19 -19 24
-16z m830 20 c1 -17 -18 -17 -25 0 -4 11 -1 15 10 13 8 -2 15 -7 15 -13z m130
-22 c11 -30 0 -47 -24 -37 -20 7 -22 35 -5 52 16 16 17 16 29 -15z m-77 -4
c-3 -5 -10 -6 -16 -3 -7 5 -9 1 -5 -9 7 -18 -8 -24 -18 -7 -8 13 17 39 32 33
7 -3 10 -9 7 -14z m-464 -39 c0 -4 -6 -13 -14 -19 -12 -10 -17 -8 -26 10 -8
14 -8 19 -1 15 6 -4 11 -3 11 3 0 6 7 8 15 5 8 -4 15 -10 15 -14z m491 -2 c11
-21 11 -22 -4 -9 -10 7 -17 17 -17 22 0 15 9 10 21 -13z m-23 -23 c-3 -3 -9 2
-12 12 -6 14 -5 15 5 6 7 -7 10 -15 7 -18z m111 8 c6 -12 5 -22 -3 -29 -10 -9
-13 -5 -13 17 0 34 3 36 16 12z m-530 -2 c10 -7 11 -13 2 -30 -10 -18 -15 -20
-34 -10 -29 16 -28 14 -21 33 7 17 31 21 53 7z m630 0 c7 -5 10 -14 7 -20 -11
-17 -26 -13 -27 7 -1 16 -2 16 -6 0 -2 -10 -8 -18 -12 -18 -13 0 -20 12 -14
26 6 16 31 18 52 5z m-729 -31 c0 -5 -2 -10 -4 -10 -3 0 -8 5 -11 10 -3 6 -1
10 4 10 6 0 11 -4 11 -10z m-453 -30 c-3 -12 1 -24 11 -30 13 -8 10 -9 -13 -4
-16 4 -34 10 -38 14 -13 12 4 40 25 40 15 0 19 -5 15 -20z m438 2 c-3 -3 -11
0 -18 7 -9 10 -8 11 6 5 10 -3 15 -9 12 -12z m52 0 c-9 -2 -15 -8 -12 -13 7
-10 -8 -12 -18 -2 -10 9 26 32 38 25 5 -4 2 -8 -8 -10z m-457 -12 c0 -5 -4
-10 -10 -10 -5 0 -10 5 -10 10 0 6 5 10 10 10 6 0 10 -4 10 -10z m1227 -22
c-3 -7 -5 -2 -5 12 0 14 2 19 5 13 2 -7 2 -19 0 -25z m-1162 -8 c3 -5 1 -10
-4 -10 -6 0 -11 5 -11 10 0 6 2 10 4 10 3 0 8 -4 11 -10z m-130 -11 c4 -6 13
-8 21 -5 16 6 19 -19 4 -29 -6 -4 -8 -10 -5 -15 5 -8 -52 7 -63 16 -2 1 -1 12
3 23 7 22 29 28 40 10z m175 -8 c0 -21 -13 -41 -26 -41 -16 0 -19 16 -4 25 6
4 8 11 5 16 -4 5 1 9 9 9 9 0 16 -4 16 -9z m880 -51 c0 -5 -4 -10 -10 -10 -5
0 -10 5 -10 10 0 6 5 10 10 10 6 0 10 -4 10 -10z m-46 -14 c-3 -8 -12 -17 -21
-20 -19 -7 -63 3 -63 15 0 12 27 11 32 -1 2 -5 13 -4 28 4 14 8 26 14 27 15 1
1 0 -5 -3 -13z"/>
<path d="M3356 367 c3 -10 9 -15 12 -12 3 3 0 11 -7 18 -10 9 -11 8 -5 -6z"/>
<path d="M5024 1498 c10 -8 16 -19 13 -24 -3 -6 4 -11 15 -11 11 -1 25 -9 32
-18 6 -9 20 -16 31 -15 11 0 59 0 106 0 66 -1 88 2 98 14 15 18 48 21 71 6 13
-8 13 -10 1 -10 -27 0 3 -18 39 -23 19 -3 42 -6 50 -8 10 -3 14 2 12 15 -4 24
20 17 32 -10 7 -15 20 -19 62 -21 54 -2 75 12 32 20 l-23 4 23 2 c16 1 22 7
22 26 0 25 -1 25 -97 26 -201 3 -246 1 -254 -13 -7 -10 -9 -9 -9 4 0 9 10 19
23 21 12 3 4 5 -18 4 -49 -1 -233 13 -260 20 -19 5 -20 5 -1 -9z m551 -68 c3
-5 -1 -10 -9 -10 -8 0 -18 5 -21 10 -3 6 1 10 9 10 8 0 18 -4 21 -10z"/>
<path d="M3990 1470 c0 -5 5 -10 11 -10 5 0 7 5 4 10 -3 6 -8 10 -11 10 -2 0
-4 -4 -4 -10z"/>
<path d="M5330 1446 c0 -2 7 -9 15 -16 12 -10 15 -10 15 4 0 9 -7 16 -15 16
-8 0 -15 -2 -15 -4z"/>
<path d="M2400 1345 c-7 -8 -9 -15 -6 -15 4 0 14 7 22 15 9 8 11 15 6 15 -5 0
-15 -7 -22 -15z"/>
<path d="M2861 1326 c12 -10 60 -16 54 -6 -3 5 -18 10 -32 10 -15 0 -24 -2
-22 -4z"/>
<path d="M2446 1294 c-10 -25 1 -29 14 -5 6 12 7 21 1 21 -5 0 -12 -7 -15 -16z"/>
<path d="M3002 1295 c3 -3 25 -8 49 -11 24 -3 46 -9 49 -13 8 -12 50 -20 50
-10 0 10 -94 39 -128 39 -14 0 -23 -2 -20 -5z"/>
<path d="M2019 1222 c-44 -46 -107 -123 -124 -151 -6 -11 -4 -13 8 -8 11 4 14
2 10 -9 -4 -11 -9 -12 -16 -5 -14 14 -27 14 -27 1 0 -5 -8 -19 -17 -29 -34
-37 -43 -50 -43 -61 0 -6 4 -9 8 -6 5 3 8 -8 7 -24 -1 -21 -17 -44 -53 -80
-29 -28 -52 -58 -52 -67 0 -9 -7 -24 -16 -34 -8 -9 -17 -34 -18 -54 -2 -21 -7
-40 -12 -44 -5 -3 -20 -26 -33 -51 -17 -32 -20 -41 -8 -31 9 7 17 10 17 5 0
-15 -16 -35 -26 -33 -19 3 -28 -2 -16 -9 9 -6 6 -20 -13 -58 -14 -27 -31 -73
-37 -101 -7 -29 -16 -53 -20 -53 -5 0 -8 -12 -8 -27 0 -14 -3 -23 -7 -19 -4 3
-17 -21 -30 -56 -16 -42 -20 -65 -13 -72 5 -5 11 -7 11 -3 1 4 2 10 3 15 5 30
124 275 252 518 44 83 97 172 127 214 37 51 97 151 97 160 0 6 5 10 11 10 7 0
9 9 6 21 -7 25 15 79 55 137 16 24 28 45 26 47 -2 3 -24 -17 -49 -43z m-346
-617 c-3 -9 -8 -14 -10 -11 -3 3 -2 9 2 15 9 16 15 13 8 -4z"/>
<path d="M3290 1240 c0 -5 5 -10 11 -10 5 0 7 5 4 10 -3 6 -8 10 -11 10 -2 0
-4 -4 -4 -10z"/>
<path d="M3350 1239 c0 -5 5 -7 10 -4 6 3 10 8 10 11 0 2 -4 4 -10 4 -5 0 -10
-5 -10 -11z"/>
<path d="M3380 1240 c0 -5 5 -10 10 -10 6 0 10 5 10 10 0 6 -4 10 -10 10 -5 0
-10 -4 -10 -10z"/>
<path d="M2668 1173 c-21 -25 -78 -110 -78 -117 0 -3 9 -6 21 -6 11 0 18 4 15
9 -9 13 4 41 19 41 18 0 49 37 34 42 -9 3 -9 9 0 26 14 26 10 28 -11 5z"/>
<path d="M2020 1153 c-13 -15 -12 -16 4 -10 10 4 20 7 22 7 2 0 4 5 4 10 0 15
-13 12 -30 -7z"/>
<path d="M5440 1160 c0 -5 7 -7 15 -4 8 4 15 8 15 10 0 2 -7 4 -15 4 -8 0 -15
-4 -15 -10z"/>
<path d="M5378 1143 c7 -3 16 -2 19 1 4 3 -2 6 -13 5 -11 0 -14 -3 -6 -6z"/>
<path d="M2490 1132 c0 -12 19 -26 26 -19 2 2 -2 10 -11 17 -9 8 -15 8 -15 2z"/>
<path d="M2310 1042 c-58 -92 -195 -362 -206 -406 -3 -14 -10 -29 -15 -32 -5
-3 -9 -14 -9 -24 0 -10 -7 -25 -15 -33 -8 -8 -12 -16 -10 -19 2 -2 -13 -47
-35 -98 -22 -52 -40 -105 -40 -117 0 -13 -4 -23 -10 -23 -5 0 -10 -9 -10 -19
0 -27 -11 -52 -20 -46 -5 3 -6 -4 -3 -15 6 -24 -14 -53 -31 -43 -6 4 -5 -1 3
-10 11 -14 11 -20 -1 -39 -8 -13 -22 -44 -31 -70 l-15 -47 38 1 c37 0 38 1 55
57 10 31 21 61 25 66 3 6 7 21 8 35 1 19 -1 21 -8 10 -7 -12 -12 -12 -22 -2
-9 9 -9 12 1 12 7 0 9 5 6 10 -8 13 -1 13 43 -5 39 -16 36 -12 -21 29 -24 18
-12 50 13 36 25 -13 30 -13 30 4 0 23 53 181 62 184 5 2 6 8 2 13 -5 8 60 206
71 218 3 2 0 10 -7 18 -8 11 -7 12 6 7 9 -3 16 -2 16 4 0 6 -5 12 -11 14 -5 2
-7 11 -4 21 9 22 26 22 18 0 -5 -15 -3 -14 10 2 10 14 12 24 5 32 -15 18 8 54
30 46 14 -6 15 -4 4 9 -15 19 -5 51 14 44 17 -7 30 14 15 23 -13 9 -4 41 11
41 6 0 5 -6 -2 -15 -7 -8 -9 -15 -5 -15 11 0 34 30 51 69 13 28 13 36 2 43
-10 7 -9 8 4 4 10 -3 20 -1 23 4 3 4 0 10 -6 12 -7 2 -3 18 11 42 15 24 25 33
30 26 6 -9 9 -9 15 0 7 11 -9 29 -25 30 -3 0 -30 -39 -60 -88z m-205 -492 c-4
-12 -9 -19 -12 -17 -3 3 -2 15 2 27 4 12 9 19 12 17 3 -3 2 -15 -2 -27z m-15
-47 c-1 -18 -18 -35 -24 -24 -4 6 -2 11 4 11 6 0 8 5 5 10 -3 6 -1 10 4 10 6
0 11 -3 11 -7z m-25 -63 c3 -5 1 -10 -4 -10 -6 0 -11 5 -11 10 0 6 2 10 4 10
3 0 8 -4 11 -10z m-50 -150 c3 -5 1 -10 -4 -10 -6 0 -11 5 -11 10 0 6 2 10 4
10 3 0 8 -4 11 -10z"/>
<path d="M5290 1126 c0 -2 7 -9 15 -16 13 -11 14 -10 9 4 -5 14 -24 23 -24 12z"/>
<path d="M5388 1123 c7 -3 16 -2 19 1 4 3 -2 6 -13 5 -11 0 -14 -3 -6 -6z"/>
<path d="M5350 1110 c0 -5 5 -10 10 -10 6 0 10 5 10 10 0 6 -4 10 -10 10 -5 0
-10 -4 -10 -10z"/>
<path d="M2538 1098 c5 -5 16 -8 23 -6 8 3 3 7 -10 11 -17 4 -21 3 -13 -5z"/>
<path d="M3380 1084 c0 -8 5 -12 10 -9 6 3 10 10 10 16 0 5 -4 9 -10 9 -5 0
-10 -7 -10 -16z"/>
<path d="M2450 1075 c0 -6 76 -45 87 -45 4 0 -12 11 -36 25 -44 26 -51 28 -51
20z"/>
<path d="M2345 1050 c-3 -5 -2 -10 4 -10 5 0 13 5 16 10 3 6 2 10 -4 10 -5 0
-13 -4 -16 -10z"/>
<path d="M2985 1050 c-3 -5 -1 -10 4 -10 6 0 11 5 11 10 0 6 -2 10 -4 10 -3 0
-8 -4 -11 -10z"/>
<path d="M3381 1053 c-1 -7 -10 -13 -21 -13 -11 0 -20 -7 -20 -15 0 -19 11
-19 34 -2 11 8 16 20 13 28 -4 9 -6 10 -6 2z"/>
<path d="M2647 1043 c-12 -11 -7 -19 12 -19 11 0 17 5 14 13 -6 14 -16 17 -26
6z"/>
<path d="M2416 1005 c-9 -14 -12 -25 -7 -25 5 0 12 7 15 16 5 14 9 14 24 3 16
-13 16 -12 2 6 -8 11 -15 21 -16 23 -1 1 -9 -9 -18 -23z"/>
<path d="M2560 1011 c0 -5 9 -11 21 -14 16 -4 18 -3 8 9 -13 16 -29 19 -29 5z"/>
<path d="M2705 1010 c3 -5 23 -17 43 -27 20 -9 40 -21 43 -26 4 -5 9 -5 13 2
6 10 -26 31 -80 51 -16 6 -23 6 -19 0z"/>
<path d="M2610 974 c0 -14 3 -14 15 -4 8 7 15 14 15 16 0 2 -7 4 -15 4 -8 0
-15 -7 -15 -16z"/>
<path d="M3134 958 c-4 -18 -8 -40 -9 -48 0 -9 -4 -21 -9 -28 -4 -6 -3 -12 2
-12 12 0 22 23 32 73 9 46 -5 60 -16 15z"/>
<path d="M3228 983 c31 -4 32 -6 30 -43 -2 -27 -6 -36 -14 -29 -8 6 -13 3 -17
-10 -3 -14 -1 -18 9 -14 10 4 14 -3 14 -21 0 -20 -5 -26 -22 -26 -17 0 -20 -3
-9 -9 8 -5 11 -16 8 -24 -9 -23 4 -29 19 -9 7 9 16 17 21 17 17 0 62 56 74 92
7 21 17 42 21 48 4 5 8 16 8 24 0 11 -4 10 -18 -5 -11 -11 -22 -26 -25 -34 -4
-12 -6 -11 -6 3 -1 21 -21 23 -21 2 0 -8 -4 -15 -10 -15 -5 0 -7 7 -4 15 4 8
1 15 -6 15 -7 0 -10 7 -6 15 4 12 -3 15 -37 13 -37 -1 -38 -2 -9 -5z m62 -133
c-6 -11 -13 -20 -15 -20 -2 0 -3 9 -2 20 1 11 7 20 14 20 11 0 11 -5 3 -20z"/>
<path d="M5346 973 c-6 -14 -5 -15 5 -6 7 7 10 15 7 18 -3 3 -9 -2 -12 -12z"/>
<path d="M2497 913 c-68 -109 -380 -748 -374 -767 2 -6 17 16 32 48 24 51 30
57 37 40 7 -16 8 -15 4 5 -3 14 7 50 25 87 16 35 29 68 29 74 0 6 5 8 10 5 6
-3 10 4 10 17 0 31 15 52 30 43 9 -5 10 -2 5 14 -4 13 -2 21 5 21 6 0 8 5 5
10 -3 6 1 10 9 10 9 0 16 8 16 17 0 16 1 16 16 1 16 -15 15 -19 -5 -53 -11
-20 -21 -44 -21 -53 1 -10 12 1 26 25 24 40 27 41 52 30 15 -6 29 -14 32 -17
8 -8 82 -41 85 -38 8 10 39 75 41 88 3 14 -13 30 -30 30 -6 0 -1 -7 10 -15 16
-12 17 -14 2 -15 -9 0 -25 -3 -35 -6 -14 -4 -15 -4 -4 4 11 8 10 12 -7 21 -28
15 -29 15 -41 -21 -6 -17 -13 -29 -16 -26 -3 3 -1 18 5 33 9 25 9 26 -5 15 -8
-7 -15 -18 -15 -26 0 -17 -13 -24 -28 -15 -9 6 -7 19 9 55 22 51 20 68 -6 42
-9 -9 -14 -16 -10 -16 3 0 1 -9 -5 -21 -9 -16 -14 -18 -26 -9 -7 7 -11 17 -8
22 4 6 10 5 16 -3 10 -14 7 -2 -9 38 -4 10 -3 14 5 9 6 -3 13 3 17 14 3 11 12
20 18 20 9 0 9 2 0 8 -7 4 -10 17 -6 30 4 18 10 21 31 15 23 -5 24 -4 11 9 -8
9 -18 14 -22 11 -5 -3 -3 4 5 16 7 12 19 21 27 21 8 0 11 7 8 20 -3 13 -1 18
6 13 6 -4 8 0 4 10 -4 11 -1 17 9 17 8 0 17 7 20 15 4 8 10 12 15 9 5 -3 6 3
2 12 -5 13 -3 16 10 11 9 -3 17 -2 17 3 0 6 -4 10 -8 10 -4 0 -8 9 -9 19 -1
15 3 18 15 14 15 -6 15 -5 3 10 -12 15 -11 17 3 17 9 0 16 5 16 10 0 6 -5 10
-11 10 -5 0 -7 5 -4 10 3 6 4 10 0 10 -3 0 -25 -30 -48 -67z m33 -423 c0 -5
-2 -10 -4 -10 -3 0 -8 5 -11 10 -3 6 -1 10 4 10 6 0 11 -4 11 -10z"/>
<path d="M2371 936 c-26 -41 -26 -41 -1 -43 11 -1 25 7 31 19 8 16 8 19 -1 13
-8 -5 -11 -3 -8 6 3 8 12 13 22 11 22 -4 20 5 -3 18 -16 8 -23 5 -40 -24z m19
-26 c0 -5 -5 -10 -11 -10 -5 0 -7 5 -4 10 3 6 8 10 11 10 2 0 4 -4 4 -10z"/>
<path d="M3180 953 c0 -10 -3 -29 -6 -43 -4 -20 -3 -22 5 -10 7 10 11 11 11 3
0 -7 5 -13 10 -13 6 0 10 9 10 21 0 11 -4 17 -10 14 -5 -3 -10 3 -10 14 0 10
6 22 13 24 7 3 5 6 -5 6 -11 1 -18 -6 -18 -16z"/>
<path d="M1786 933 c-4 -9 -3 -20 1 -24 4 -4 9 3 9 17 2 28 -1 31 -10 7z"/>
<path d="M2592 938 c-7 -7 -12 -18 -12 -24 0 -7 -6 -19 -13 -26 -16 -16 -57
-100 -57 -116 0 -7 -4 -12 -10 -12 -5 0 -10 -4 -10 -10 0 -21 20 -9 26 15 3
14 9 25 13 25 3 0 15 17 25 38 10 20 22 45 28 55 12 25 28 67 25 67 -2 0 -8
-5 -15 -12z"/>
<path d="M2900 939 c0 -6 -9 -9 -20 -6 -13 3 -20 0 -20 -9 0 -8 6 -11 15 -8 8
4 15 1 15 -5 0 -6 8 -11 19 -11 10 0 24 -7 31 -15 15 -18 40 -3 40 24 0 12 -2
13 -8 3 -7 -10 -15 -10 -38 -1 -26 10 -27 12 -10 18 18 7 18 8 2 14 -24 9 -26
9 -26 -4z"/>
<path d="M5386 924 c4 -16 12 -38 18 -49 5 -11 9 -23 8 -28 -3 -10 46 -32 54
-24 3 3 1 12 -5 19 -40 47 -51 62 -51 73 0 7 -7 18 -16 26 -13 11 -14 9 -8
-17z"/>
<path d="M2444 926 c-5 -6 -13 -19 -17 -29 -4 -10 -11 -15 -17 -12 -6 3 -7 0
-4 -9 7 -18 19 -8 42 33 15 25 13 35 -4 17z"/>
<path d="M2643 897 c2 -6 23 -21 47 -34 49 -26 50 -26 50 -14 0 5 -13 14 -30
20 -16 5 -30 14 -30 19 0 5 -9 12 -21 15 -12 3 -19 1 -16 -6z"/>
<path d="M2640 860 c0 -6 7 -10 15 -10 8 0 15 2 15 4 0 2 -7 6 -15 10 -8 3
-15 1 -15 -4z"/>
<path d="M3176 854 c-3 -9 -6 -25 -6 -37 1 -22 1 -22 12 -2 14 23 18 55 7 55
-4 0 -10 -7 -13 -16z"/>
<path d="M3100 850 c0 -5 5 -10 10 -10 6 0 10 5 10 10 0 6 -4 10 -10 10 -5 0
-10 -4 -10 -10z"/>
<path d="M2311 845 c8 -7 79 -36 79 -31 0 6 -61 36 -73 36 -6 0 -8 -2 -6 -5z"/>
<path d="M2600 839 c0 -6 -6 -7 -12 -2 -7 4 -5 -5 4 -19 10 -15 14 -29 9 -33
-5 -3 -11 1 -14 7 -2 7 -8 10 -12 5 -11 -10 21 -38 66 -59 l37 -17 17 40 c10
21 16 40 14 42 -66 38 -72 40 -84 23 -17 -23 -28 -20 -15 4 7 14 7 20 0 20 -5
0 -10 -5 -10 -11z m65 -87 c-3 -3 -11 0 -18 7 -9 10 -8 11 6 5 10 -3 15 -9 12
-12z"/>
<path d="M2070 829 c0 -5 5 -7 10 -4 6 3 10 8 10 11 0 2 -4 4 -10 4 -5 0 -10
-5 -10 -11z"/>
<path d="M3340 835 c0 -3 9 -15 19 -26 l19 -21 -2 26 c-1 18 -7 26 -18 26 -10
0 -18 -2 -18 -5z"/>
<path d="M1965 819 c-4 -5 -3 -8 2 -7 16 6 16 -9 0 -31 -8 -13 -20 -20 -26
-16 -6 3 -11 1 -11 -4 0 -6 5 -11 11 -11 6 0 8 -9 4 -20 -3 -11 -3 -20 2 -20
8 1 53 83 53 99 0 13 -28 22 -35 10z"/>
<path d="M2972 823 c-18 -7 -4 -23 19 -23 11 0 19 -7 20 -17 0 -11 3 -13 6 -5
2 6 14 12 26 13 16 1 12 4 -13 12 -19 6 -37 14 -40 17 -3 4 -11 5 -18 3z"/>
<path d="M5480 803 c0 -7 5 -13 11 -13 7 0 9 -11 6 -29 -5 -24 -2 -30 15 -34
15 -4 19 -11 15 -27 -5 -21 -5 -21 21 -4 27 17 27 17 9 -3 -22 -25 -10 -39 15
-16 17 15 18 15 18 -3 0 -18 1 -18 18 0 16 16 16 18 -6 36 -13 10 -22 20 -20
22 7 8 -29 46 -46 49 -11 2 -21 10 -24 17 -2 8 2 10 15 5 10 -3 15 -2 10 3
-13 14 -57 12 -57 -3z"/>
<path d="M2275 790 c8 -13 64 -42 74 -38 4 2 -12 13 -36 25 -24 13 -41 18 -38
13z"/>
<path d="M5618 793 c7 -3 16 -2 19 1 4 3 -2 6 -13 5 -11 0 -14 -3 -6 -6z"/>
<path d="M3157 783 c-15 -15 -5 -23 28 -23 19 0 35 5 35 11 0 6 -7 9 -15 6 -8
-4 -17 -2 -20 3 -7 12 -19 13 -28 3z"/>
<path d="M5380 781 c0 -6 4 -13 10 -16 6 -3 7 1 4 9 -7 18 -14 21 -14 7z"/>
<path d="M5422 770 c7 -10 14 -18 15 -16 6 6 -9 36 -18 36 -5 0 -4 -9 3 -20z"/>
<path d="M2036 764 c-5 -14 -4 -15 9 -4 17 14 19 20 6 20 -5 0 -12 -7 -15 -16z"/>
<path d="M3260 770 c0 -5 5 -10 11 -10 5 0 7 5 4 10 -3 6 -8 10 -11 10 -2 0
-4 -4 -4 -10z"/>
<path d="M3326 754 c-9 -24 -2 -26 12 -4 7 11 8 20 3 20 -5 0 -12 -7 -15 -16z"/>
<path d="M3481 744 c0 -11 3 -14 6 -6 3 7 2 16 -1 19 -3 4 -6 -2 -5 -13z"/>
<path d="M2584 741 c3 -4 19 -14 36 -21 16 -7 30 -16 30 -21 0 -15 -16 -10
-45 12 -22 18 -28 20 -36 8 -6 -10 -1 -16 19 -23 15 -5 34 -15 43 -22 14 -12
17 -11 27 10 10 23 8 26 -29 45 -43 23 -53 26 -45 12z"/>
<path d="M3248 743 c7 -3 16 -2 19 1 4 3 -2 6 -13 5 -11 0 -14 -3 -6 -6z"/>
<path d="M5145 740 c3 -5 8 -10 11 -10 2 0 4 5 4 10 0 6 -5 10 -11 10 -5 0 -7
-4 -4 -10z"/>
<path d="M5618 743 c7 -3 16 -2 19 1 4 3 -2 6 -13 5 -11 0 -14 -3 -6 -6z"/>
<path d="M2025 730 c-3 -5 -1 -10 4 -10 6 0 11 5 11 10 0 6 -2 10 -4 10 -3 0
-8 -4 -11 -10z"/>
<path d="M2540 730 c0 -5 5 -10 11 -10 5 0 7 5 4 10 -3 6 -8 10 -11 10 -2 0
-4 -4 -4 -10z"/>
<path d="M2255 720 c3 -5 8 -10 11 -10 2 0 4 5 4 10 0 6 -5 10 -11 10 -5 0 -7
-4 -4 -10z"/>
<path d="M1905 695 c19 -16 33 -21 39 -15 13 13 6 19 -35 30 l-34 9 30 -24z"/>
<path d="M3026 703 c-3 -10 -11 -26 -18 -35 -17 -23 -3 -34 17 -14 9 9 13 16
9 16 -5 0 -3 5 4 12 14 14 16 38 3 38 -5 0 -11 -8 -15 -17z"/>
<path d="M5490 710 c0 -5 7 -7 15 -4 8 4 15 8 15 10 0 2 -7 4 -15 4 -8 0 -15
-4 -15 -10z"/>
<path d="M3285 673 c-10 -21 -20 -42 -22 -48 -3 -5 7 3 21 18 14 15 26 37 26
48 0 28 -6 24 -25 -18z"/>
<path d="M5345 700 c-3 -5 1 -10 10 -10 9 0 13 5 10 10 -3 6 -8 10 -10 10 -2
0 -7 -4 -10 -10z"/>
<path d="M2457 679 c-4 -16 -3 -18 9 -8 16 13 19 29 5 29 -5 0 -11 -9 -14 -21z"/>
<path d="M5140 679 c0 -5 5 -7 10 -4 6 3 10 8 10 11 0 2 -4 4 -10 4 -5 0 -10
-5 -10 -11z"/>
<path d="M2220 657 c-12 -21 -12 -21 6 -7 10 8 20 15 22 16 2 1 -1 4 -5 7 -5
3 -15 -4 -23 -16z"/>
<path d="M2510 671 c0 -10 102 -62 108 -56 7 6 7 6 -55 38 -29 14 -53 23 -53
18z"/>
<path d="M3488 650 c2 -16 9 -30 14 -30 13 0 6 53 -8 57 -7 2 -9 -8 -6 -27z"/>
<path d="M5037 661 c-4 -17 -3 -21 5 -13 5 5 8 16 6 23 -3 8 -7 3 -11 -10z"/>
<path d="M1850 655 c6 -8 21 -17 32 -21 12 -4 17 -11 13 -21 -4 -13 -3 -14 10
-3 12 10 18 10 32 -1 13 -11 13 -8 -2 12 -11 15 -24 25 -28 22 -4 -3 -19 2
-32 11 -30 20 -41 21 -25 1z"/>
<path d="M5570 651 c0 -6 7 -11 15 -11 12 0 14 -7 9 -27 -4 -16 -11 -34 -16
-40 -10 -13 -60 -14 -52 -2 10 16 -28 17 -55 1 -31 -17 -49 -68 -32 -85 6 -6
8 -1 4 14 -6 21 -4 22 9 11 11 -9 18 -10 23 -2 3 5 -2 13 -12 17 -14 6 -10 9
17 14 20 5 39 3 45 -2 7 -7 4 -8 -7 -4 -13 5 -18 2 -18 -9 0 -9 6 -16 13 -17
6 0 2 -4 -10 -9 -15 -6 -21 -15 -17 -25 6 -14 -17 -21 -49 -16 -9 1 -30 -50
-23 -56 2 -3 14 -2 26 2 17 5 19 10 9 21 -10 12 -4 14 32 13 24 -1 34 -4 22
-6 -35 -7 -49 -30 -29 -51 19 -22 21 -34 4 -31 -7 1 -24 -3 -38 -9 -15 -6 -19
-11 -9 -11 16 -1 59 -44 59 -60 0 -5 6 -12 13 -15 6 -3 1 -3 -12 0 -17 5 -21
3 -16 -6 6 -9 4 -11 -5 -5 -8 5 -18 1 -26 -9 -11 -15 -15 -16 -27 -5 -8 7 -12
21 -10 31 6 21 33 32 33 13 0 -8 -4 -15 -10 -15 -5 0 -10 -4 -10 -10 0 -16 14
-11 27 10 13 20 6 57 -12 61 -25 4 -33 12 -28 25 4 10 0 12 -12 8 -9 -4 -20
-2 -24 4 -10 16 -101 28 -101 14 0 -6 7 -9 15 -6 8 4 15 1 15 -6 0 -6 -4 -8
-10 -5 -5 3 -10 2 -10 -4 0 -6 -6 -8 -14 -5 -8 3 -17 1 -21 -5 -5 -9 12 -15
36 -13 3 1 6 -13 6 -31 0 -18 -2 -26 -4 -20 -5 13 -55 -35 -74 -69 -8 -14 -3
-18 25 -24 19 -3 39 -3 45 1 6 3 11 1 11 -4 0 -15 48 -14 53 1 2 7 3 6 2 -3
-2 -17 34 -34 95 -44 48 -8 73 -36 74 -82 1 -21 7 -38 13 -38 6 0 15 -3 19 -7
4 -5 27 -8 51 -8 l43 0 0 122 c0 98 -3 125 -16 140 -16 16 -16 18 0 24 13 5
16 21 16 80 0 72 -1 74 -25 74 -14 0 -25 5 -25 11 0 7 10 9 25 5 27 -7 34 11
13 32 -9 9 -9 12 0 12 18 0 15 78 -3 97 -9 9 -13 23 -10 34 4 10 2 19 -4 19
-5 0 -16 3 -25 6 -9 3 -16 1 -16 -5z m5 -151 c-3 -5 -13 -10 -21 -10 -8 0 -12
5 -9 10 3 6 13 10 21 10 8 0 12 -4 9 -10z m-45 -20 c0 -5 -4 -10 -10 -10 -5 0
-10 5 -10 10 0 6 5 10 10 10 6 0 10 -4 10 -10z m70 0 c0 -5 -2 -10 -4 -10 -3
0 -8 5 -11 10 -3 6 -1 10 4 10 6 0 11 -4 11 -10z m-40 -30 c0 -5 -4 -10 -10
-10 -5 0 -10 5 -10 10 0 6 5 10 10 10 6 0 10 -4 10 -10z m44 -38 c2 -4 -5 -14
-16 -21 -18 -11 -20 -11 -15 2 3 9 1 18 -6 21 -7 2 -2 5 10 5 12 1 24 -3 27
-7z m-94 -23 c0 -6 -4 -7 -10 -4 -5 3 -10 11 -10 16 0 6 5 7 10 4 6 -3 10 -11
10 -16z m40 17 c0 -2 -7 -7 -16 -10 -8 -3 -12 -2 -9 4 6 10 25 14 25 6z m-185
-84 c-8 -9 -35 20 -28 31 4 6 11 3 19 -8 8 -10 12 -21 9 -23z m176 21 c12 -15
12 -16 -5 -10 -16 6 -17 5 -7 -7 7 -8 8 -17 3 -20 -11 -6 -24 33 -16 46 7 11
10 10 25 -9z m45 2 c17 -16 14 -18 -10 -9 -9 3 -16 10 -16 15 0 13 9 11 26 -6z
m-16 -30 c0 -8 -4 -15 -10 -15 -5 0 -10 7 -10 15 0 8 5 15 10 15 6 0 10 -7 10
-15z m-238 -34 c1 -14 9 -27 17 -29 10 -3 12 0 8 12 -4 10 -3 15 3 11 6 -3 10
1 10 9 0 9 8 16 17 16 13 0 14 -3 6 -11 -6 -6 -9 -17 -7 -23 3 -7 -7 -18 -21
-24 -15 -7 -25 -8 -25 -2 0 6 -7 10 -16 10 -8 0 -13 4 -9 9 3 5 1 12 -4 15 -5
3 -7 15 -4 27 7 24 20 14 25 -20z m186 -6 c-3 -3 -9 2 -12 12 -6 14 -5 15 5 6
7 -7 10 -15 7 -18z m62 -29 c0 -11 -19 -15 -25 -6 -3 5 1 10 9 10 9 0 16 -2
16 -4z m-304 -32 c8 3 14 1 14 -4 0 -6 -6 -10 -14 -10 -8 0 -21 -3 -30 -6 -19
-7 -22 16 -3 35 10 10 13 9 15 -4 2 -9 10 -14 18 -11z m245 -67 c-8 -8 -11 -7
-11 4 0 20 13 34 18 19 3 -7 -1 -17 -7 -23z m-34 1 c-3 -8 -6 -5 -6 6 -1 11 2
17 5 13 3 -3 4 -12 1 -19z"/>
<path d="M2261 610 c-12 -22 -19 -40 -14 -40 10 0 48 68 41 75 -2 3 -15 -13
-27 -35z"/>
<path d="M2430 635 c-10 -12 -10 -15 4 -15 9 0 16 7 16 15 0 8 -2 15 -4 15 -2
0 -9 -7 -16 -15z"/>
<path d="M4350 630 c0 -5 5 -10 10 -10 6 0 10 5 10 10 0 6 -4 10 -10 10 -5 0
-10 -4 -10 -10z"/>
<path d="M5487 627 c-8 -20 1 -27 36 -27 22 0 28 -4 23 -15 -3 -9 0 -15 8 -15
9 0 12 8 8 25 -3 18 -11 25 -26 25 -12 0 -27 5 -33 11 -7 7 -12 6 -16 -4z"/>
<path d="M2045 620 c-3 -5 -1 -10 4 -10 6 0 11 5 11 10 0 6 -2 10 -4 10 -3 0
-8 -4 -11 -10z"/>
<path d="M2982 614 c-7 -8 -12 -20 -9 -27 2 -7 9 -2 16 11 15 28 11 36 -7 16z"/>
<path d="M4387 609 c4 -15 8 -17 14 -8 8 14 3 29 -11 29 -4 0 -6 -9 -3 -21z"/>
<path d="M5445 610 c20 -23 29 -21 19 4 -3 9 -13 16 -22 16 -13 0 -12 -3 3
-20z"/>
<path d="M1811 604 c7 -9 7 -19 -1 -33 -12 -23 -30 -28 -31 -8 -1 17 -28 -44
-29 -66 0 -10 4 -16 9 -12 6 3 8 -5 5 -19 -3 -20 2 -29 27 -41 17 -9 28 -19
25 -22 -3 -3 -17 2 -30 11 -46 30 -52 11 -7 -22 32 -23 99 -42 71 -19 -24 19
-23 57 2 57 11 0 22 8 25 20 5 20 43 29 43 10 0 -5 -4 -10 -10 -10 -5 0 -10
-7 -10 -15 0 -8 -5 -15 -11 -15 -5 0 -7 -4 -4 -10 11 -18 21 -11 33 23 15 42
15 47 -2 47 -7 0 -22 12 -31 27 -17 25 -17 26 1 20 15 -6 14 -3 -5 13 -27 23
-49 27 -32 6 10 -12 8 -13 -9 -9 -15 4 -18 9 -10 18 5 6 7 15 3 18 -12 12 12
7 32 -6 11 -8 29 -17 39 -21 19 -6 19 -6 3 12 -9 10 -14 22 -10 25 3 4 -3 7
-15 7 -11 0 -23 4 -26 9 -3 5 -17 11 -31 13 -20 4 -23 2 -14 -8z m-1 -159 c7
-8 8 -15 2 -15 -5 0 -15 7 -22 15 -7 8 -8 15 -2 15 5 0 15 -7 22 -15z"/>
<path d="M2470 617 c0 -7 99 -67 110 -67 6 0 10 5 10 11 0 6 -7 9 -15 5 -8 -3
-14 -2 -12 2 1 4 -2 8 -8 10 -5 2 -17 9 -25 17 -16 13 -60 30 -60 22z"/>
<path d="M5382 600 c-7 -11 -8 -20 -2 -20 5 0 14 9 20 20 6 11 7 20 3 20 -5 0
-14 -9 -21 -20z"/>
<path d="M3230 600 c0 -5 5 -10 10 -10 6 0 10 5 10 10 0 6 -4 10 -10 10 -5 0
-10 -4 -10 -10z"/>
<path d="M4473 591 c4 -29 17 -39 17 -13 0 11 -5 24 -10 27 -6 4 -9 -2 -7 -14z"/>
<path d="M1965 590 c3 -5 8 -10 11 -10 2 0 4 5 4 10 0 6 -5 10 -11 10 -5 0 -7
-4 -4 -10z"/>
<path d="M4425 590 c4 -6 11 -8 16 -5 14 9 11 15 -7 15 -8 0 -12 -5 -9 -10z"/>
<path d="M5425 590 c-3 -5 -1 -10 4 -10 6 0 11 5 11 10 0 6 -2 10 -4 10 -3 0
-8 -4 -11 -10z"/>
<path d="M5090 579 c0 -11 27 -12 34 -1 2 4 -4 9 -15 9 -10 1 -19 -2 -19 -8z"/>
<path d="M5276 577 c3 -10 9 -15 12 -12 3 3 0 11 -7 18 -10 9 -11 8 -5 -6z"/>
<path d="M4958 573 c6 -2 18 -2 25 0 6 3 1 5 -13 5 -14 0 -19 -2 -12 -5z"/>
<path d="M5225 570 c-9 -14 6 -110 16 -104 5 3 6 16 3 30 -4 14 -2 24 5 24 6
0 11 -7 11 -15 0 -8 7 -15 15 -15 10 0 15 10 15 28 0 21 -2 24 -10 12 -7 -12
-10 -8 -10 15 -1 26 -2 28 -11 11 -9 -15 -13 -16 -20 -5 -5 8 -3 17 4 21 9 6
9 8 0 8 -6 0 -15 -4 -18 -10z"/>
<path d="M5319 571 c12 -8 12 -12 2 -24 -8 -11 -9 -17 -1 -22 14 -9 31 38 16
47 -6 4 -15 8 -21 8 -5 0 -4 -4 4 -9z"/>
<path d="M2495 560 c3 -5 11 -10 16 -10 6 0 7 5 4 10 -3 6 -11 10 -16 10 -6 0
-7 -4 -4 -10z"/>
<path d="M3190 560 c0 -5 5 -10 11 -10 5 0 7 5 4 10 -3 6 -8 10 -11 10 -2 0
-4 -4 -4 -10z"/>
<path d="M5130 544 c0 -20 4 -25 16 -20 9 3 20 6 25 6 5 0 0 9 -11 20 -26 26
-30 25 -30 -6z"/>
<path d="M4885 550 c-3 -5 -12 -7 -20 -3 -22 8 -18 -15 4 -27 26 -13 26 -14
27 15 2 27 -1 31 -11 15z"/>
<path d="M5356 535 c-10 -37 -7 -55 9 -49 22 9 18 -14 -4 -26 -29 -15 -53 -3
-40 21 6 13 6 19 -1 19 -5 0 -10 -4 -10 -10 0 -5 -9 -10 -20 -10 -11 0 -20 -7
-20 -15 0 -9 6 -12 18 -8 14 5 15 3 5 -8 -16 -16 -17 -49 -3 -49 6 0 13 7 16
15 9 22 23 18 17 -5 -4 -17 0 -19 36 -17 l41 1 -32 18 c-34 17 -31 22 10 18
21 -1 23 2 20 42 -2 34 -6 42 -20 40 -10 -2 -18 2 -18 8 0 5 6 10 13 10 7 0
22 6 32 14 17 12 16 13 -13 12 -22 -1 -32 -7 -36 -21z"/>
<path d="M1731 534 c0 -11 3 -14 6 -6 3 7 2 16 -1 19 -3 4 -6 -2 -5 -13z"/>
<path d="M1940 530 c0 -5 5 -10 11 -10 5 0 7 5 4 10 -3 6 -8 10 -11 10 -2 0
-4 -4 -4 -10z"/>
<path d="M5031 514 c0 -11 3 -14 6 -6 3 7 2 16 -1 19 -3 4 -6 -2 -5 -13z"/>
<path d="M4420 510 c0 -5 7 -10 15 -10 8 0 15 5 15 10 0 6 -7 10 -15 10 -8 0
-15 -4 -15 -10z"/>
<path d="M5201 513 c-1 -6 -10 -15 -21 -18 -11 -3 -20 -14 -20 -23 1 -15 3
-14 15 2 15 19 15 19 15 -2 0 -12 -5 -22 -11 -22 -6 0 -9 -9 -6 -19 3 -12 -1
-22 -10 -25 -25 -10 -34 4 -27 39 4 25 2 39 -10 51 -10 9 -20 14 -23 11 -3 -3
2 -13 11 -22 19 -19 21 -29 5 -19 -9 5 -10 -1 -5 -20 7 -30 0 -33 -26 -9 -13
12 -22 13 -29 6 -8 -8 -3 -16 17 -27 20 -12 22 -15 8 -11 -14 4 -24 0 -28 -10
-5 -13 2 -14 44 -10 30 3 50 1 50 -5 0 -6 -5 -10 -11 -10 -5 0 -7 -5 -3 -11 4
-8 9 -8 17 0 6 6 20 11 30 11 14 0 17 3 9 13 -6 6 -8 24 -5 39 4 20 9 25 22
20 13 -5 14 -3 4 9 -7 9 -9 19 -4 25 5 5 5 18 1 29 -5 11 -9 15 -9 8z"/>
<path d="M4490 490 c-9 -6 -10 -10 -3 -10 6 0 15 5 18 10 8 12 4 12 -15 0z"/>
<path d="M4575 490 c-3 -5 -2 -10 4 -10 5 0 13 5 16 10 3 6 2 10 -4 10 -5 0
-13 -4 -16 -10z"/>
<path d="M4955 461 c2 -24 7 -46 11 -50 4 -3 4 5 1 18 -4 17 -1 29 11 37 16
12 16 13 0 14 -9 0 -18 6 -21 13 -3 6 -3 -8 -2 -32z"/>
<path d="M4606 474 c-5 -14 -4 -15 9 -4 17 14 19 20 6 20 -5 0 -12 -7 -15 -16z"/>
<path d="M5068 483 c7 -3 16 -2 19 1 4 3 -2 6 -13 5 -11 0 -14 -3 -6 -6z"/>
<path d="M1700 471 c0 -6 5 -13 10 -16 6 -3 10 1 10 9 0 9 -4 16 -10 16 -5 0
-10 -4 -10 -9z"/>
<path d="M3105 459 c-4 -6 -5 -12 -2 -15 2 -3 7 2 10 11 7 17 1 20 -8 4z"/>
<path d="M2370 442 c0 -7 8 -16 18 -19 9 -4 19 -9 22 -12 9 -11 80 -44 84 -40
2 2 6 14 10 25 5 15 2 24 -10 28 -9 4 -19 4 -22 1 -3 -3 0 -5 6 -5 7 0 12 -6
12 -14 0 -11 -5 -12 -25 -3 -26 13 -33 27 -13 27 9 0 9 3 0 12 -10 10 -14 10
-21 0 -9 -15 -42 -13 -53 3 -5 6 -8 5 -8 -3z"/>
<path d="M4575 440 c-3 -5 -1 -10 4 -10 6 0 11 5 11 10 0 6 -2 10 -4 10 -3 0
-8 -4 -11 -10z"/>
<path d="M1668 425 c11 -21 -4 -45 -24 -38 -13 4 -36 -53 -61 -149 -10 -40
-21 -74 -25 -76 -16 -7 -7 -22 20 -36 23 -13 24 -15 7 -16 -15 0 -17 -2 -7 -9
11 -7 11 -9 -2 -14 -10 -4 -16 1 -18 16 -3 17 -7 12 -20 -23 -9 -25 -19 -53
-23 -62 -6 -16 0 -18 58 -18 l66 0 6 47 c3 27 10 75 15 108 6 33 17 103 25
155 9 52 18 104 22 115 5 17 3 18 -9 8 -11 -10 -17 -10 -27 0 -11 10 -12 8 -3
-8z m-58 -185 c0 -5 -2 -10 -4 -10 -3 0 -8 5 -11 10 -3 6 -1 10 4 10 6 0 11
-4 11 -10z m10 -30 c0 -5 -7 -7 -15 -4 -8 4 -15 8 -15 10 0 2 7 4 15 4 8 0 15
-4 15 -10z m-13 -36 c7 -18 -11 -39 -25 -30 -12 7 -4 46 9 46 6 0 12 -7 16
-16z m-37 -114 c0 -5 -2 -10 -4 -10 -3 0 -8 5 -11 10 -3 6 -1 10 4 10 6 0 11
-4 11 -10z m-15 -20 c3 -5 1 -10 -4 -10 -6 0 -11 5 -11 10 0 6 2 10 4 10 3 0
8 -4 11 -10z"/>
<path d="M5140 425 c0 -8 5 -15 10 -15 6 0 10 7 10 15 0 8 -4 15 -10 15 -5 0
-10 -7 -10 -15z"/>
<path d="M1956 417 c3 -10 9 -15 12 -12 3 3 0 11 -7 18 -10 9 -11 8 -5 -6z"/>
<path d="M970 410 c-9 -6 -10 -10 -3 -10 6 0 15 5 18 10 8 12 4 12 -15 0z"/>
<path d="M4060 416 c0 -11 30 -39 36 -34 2 3 -5 13 -16 23 -11 10 -20 15 -20
11z"/>
<path d="M4210 410 c0 -5 5 -10 11 -10 5 0 7 5 4 10 -3 6 -8 10 -11 10 -2 0
-4 -4 -4 -10z"/>
<path d="M4815 410 c-3 -5 -2 -10 4 -10 5 0 13 5 16 10 3 6 2 10 -4 10 -5 0
-13 -4 -16 -10z"/>
<path d="M2313 403 c-21 -8 -15 -23 10 -22 12 0 16 3 9 6 -6 2 -10 9 -6 14 6
10 5 10 -13 2z"/>
<path d="M4985 400 c-3 -5 -11 -7 -18 -4 -8 3 -13 -5 -15 -21 -1 -14 0 -25 3
-25 7 0 55 47 55 54 0 9 -18 7 -25 -4z"/>
<path d="M5218 403 c6 -2 18 -2 25 0 6 3 1 5 -13 5 -14 0 -19 -2 -12 -5z"/>
<path d="M4627 380 c-21 -25 -21 -36 -1 -44 28 -11 39 -6 20 9 -16 12 -17 17
-6 30 7 8 11 17 8 20 -2 2 -12 -5 -21 -15z"/>
<path d="M1876 370 c-16 -50 -16 -66 0 -37 8 16 14 36 12 45 -3 13 -6 11 -12
-8z"/>
<path d="M5430 380 c-8 -5 -11 -12 -7 -16 4 -4 13 -2 19 4 15 15 7 24 -12 12z"/>
<path d="M1955 370 c3 -5 8 -10 11 -10 2 0 4 5 4 10 0 6 -5 10 -11 10 -5 0 -7
-4 -4 -10z"/>
<path d="M4156 367 c3 -10 9 -15 12 -12 3 3 0 11 -7 18 -10 9 -11 8 -5 -6z"/>
<path d="M4340 371 c0 -5 5 -13 10 -16 6 -3 10 -2 10 4 0 5 -4 13 -10 16 -5 3
-10 2 -10 -4z"/>
<path d="M4790 366 c0 -18 10 -25 26 -19 20 7 17 20 -6 26 -12 3 -20 0 -20 -7z"/>
<path d="M4910 364 c0 -8 5 -12 10 -9 6 4 8 11 5 16 -9 14 -15 11 -15 -7z"/>
<path d="M1730 355 c0 -8 6 -15 13 -15 7 0 18 -5 24 -11 15 -15 4 -52 -13 -45
-8 3 -14 -1 -14 -10 0 -8 10 -18 23 -23 26 -10 35 -5 20 10 -13 13 -5 49 11
49 7 0 21 -7 32 -15 23 -17 34 -19 34 -5 0 6 -5 10 -10 10 -12 0 -94 52 -98
63 -6 13 -22 7 -22 -8z"/>
<path d="M4220 350 c-6 -11 -7 -20 -2 -20 6 0 12 9 15 20 3 11 3 20 1 20 -2 0
-8 -9 -14 -20z"/>
<path d="M5100 360 c0 -5 5 -10 10 -10 6 0 10 5 10 10 0 6 -4 10 -10 10 -5 0
-10 -4 -10 -10z"/>
<path d="M2070 350 c0 -5 5 -10 11 -10 5 0 7 5 4 10 -3 6 -8 10 -11 10 -2 0
-4 -4 -4 -10z"/>
<path d="M4446 346 c9 -23 33 -28 27 -5 -3 10 -11 19 -19 19 -7 0 -11 -6 -8
-14z"/>
<path d="M4984 345 c-12 -8 -24 -12 -27 -8 -13 12 -19 -27 -8 -54 10 -26 10
-25 6 12 -4 30 -3 35 4 20 8 -16 10 -17 10 -3 1 11 11 18 29 20 15 2 26 7 25
13 -3 16 -17 16 -39 0z"/>
<path d="M3631 339 c-1 -9 7 -27 18 -40 16 -20 21 -21 35 -10 24 20 19 34 -9
27 -20 -5 -27 -2 -35 16 -6 16 -9 18 -9 7z"/>
<path d="M3780 341 c0 -5 7 -11 14 -14 10 -4 13 -1 9 9 -6 15 -23 19 -23 5z"/>
<path d="M4136 335 c-9 -26 -7 -32 5 -12 6 10 9 21 6 23 -2 3 -7 -2 -11 -11z"/>
<path d="M5197 330 c4 -13 0 -25 -8 -31 -11 -6 -11 -11 -2 -20 6 -6 9 -18 6
-25 -3 -8 0 -14 7 -14 6 0 8 5 5 10 -3 6 4 14 16 18 20 8 20 9 5 15 -12 5 -16
15 -14 34 2 14 -2 28 -9 30 -7 3 -9 -3 -6 -17z"/>
<path d="M1451 324 c0 -11 3 -14 6 -6 3 7 2 16 -1 19 -3 4 -6 -2 -5 -13z"/>
<path d="M4778 320 c12 -5 22 -15 22 -21 0 -7 3 -9 6 -6 10 10 -16 37 -35 36
-11 0 -9 -3 7 -9z"/>
<path d="M3570 305 c0 -8 5 -15 10 -15 6 0 10 7 10 15 0 8 -4 15 -10 15 -5 0
-10 -7 -10 -15z"/>
<path d="M4631 314 c-1 -6 5 -17 13 -23 11 -9 15 -8 20 5 9 24 7 28 -8 15 -11
-9 -15 -9 -19 1 -3 8 -6 8 -6 2z"/>
<path d="M4740 310 c0 -5 5 -10 11 -10 5 0 7 5 4 10 -3 6 -8 10 -11 10 -2 0
-4 -4 -4 -10z"/>
<path d="M5026 312 c-3 -6 -2 -13 4 -17 5 -3 10 -4 10 0 0 3 9 1 19 -5 13 -7
22 -7 26 0 3 5 -2 10 -12 10 -11 0 -24 5 -30 11 -7 7 -13 7 -17 1z"/>
<path d="M1710 296 c0 -9 5 -16 10 -16 6 0 10 4 10 9 0 6 -4 13 -10 16 -5 3
-10 -1 -10 -9z"/>
<path d="M4214 299 c-3 -5 2 -9 11 -9 16 0 15 -10 -1 -55 -3 -5 11 -11 31 -12
31 -2 33 0 23 17 -9 14 -16 16 -25 8 -10 -8 -13 -6 -13 6 0 9 7 16 15 16 23 0
18 14 -10 27 -14 6 -27 7 -31 2z"/>
<path d="M4840 300 c0 -5 5 -10 10 -10 6 0 10 5 10 10 0 6 -4 10 -10 10 -5 0
-10 -4 -10 -10z"/>
<path d="M5240 300 c0 -5 5 -10 10 -10 6 0 10 5 10 10 0 6 -4 10 -10 10 -5 0
-10 -4 -10 -10z"/>
<path d="M4102 275 c0 -16 2 -22 5 -12 2 9 2 23 0 30 -3 6 -5 -1 -5 -18z"/>
<path d="M4712 291 c-11 -7 -11 -9 0 -14 9 -3 15 1 15 9 0 8 -1 14 -1 14 -1 0
-7 -4 -14 -9z"/>
<path d="M3550 270 c0 -5 5 -10 10 -10 6 0 10 5 10 10 0 6 -4 10 -10 10 -5 0
-10 -4 -10 -10z"/>
<path d="M4891 264 c0 -11 3 -14 6 -6 3 7 2 16 -1 19 -3 4 -6 -2 -5 -13z"/>
<path d="M965 250 c9 -31 21 -45 29 -32 3 5 -4 20 -15 33 l-21 24 7 -25z"/>
<path d="M1892 254 c10 -10 20 -15 24 -12 3 4 -5 12 -18 18 -22 12 -22 12 -6
-6z"/>
<path d="M3732 254 c-7 -8 -8 -14 -3 -14 10 0 25 19 20 25 -2 1 -10 -3 -17
-11z"/>
<path d="M4050 259 c0 -5 5 -7 10 -4 6 3 10 8 10 11 0 2 -4 4 -10 4 -5 0 -10
-5 -10 -11z"/>
<path d="M4855 260 c-16 -7 -17 -9 -3 -9 9 -1 20 4 23 9 7 11 7 11 -20 0z"/>
<path d="M4917 258 c-3 -9 6 -14 27 -15 17 0 24 1 16 4 -8 3 -20 10 -26 15 -7
5 -14 4 -17 -4z"/>
<path d="M5130 260 c0 -5 -7 -10 -17 -10 -24 0 -13 -6 23 -13 28 -5 31 -4 27
13 -5 20 -33 28 -33 10z"/>
<path d="M4137 249 c7 -7 15 -10 18 -7 3 3 -2 9 -12 12 -14 6 -15 5 -6 -5z"/>
<path d="M1694 232 c5 -13 3 -22 -3 -22 -17 0 -13 -50 4 -56 11 -4 13 -13 9
-28 -6 -20 -6 -20 14 2 19 21 21 22 25 5 4 -15 5 -14 6 4 0 12 -2 23 -6 26 -5
2 -3 3 3 1 6 -1 17 2 24 6 11 7 11 11 0 26 -8 9 -15 24 -15 32 0 8 -6 17 -13
19 -7 3 -10 -1 -6 -11 8 -21 -10 -20 -32 1 -16 16 -16 16 -10 -5z m9 -52 c3
-11 1 -18 -4 -14 -5 3 -9 12 -9 20 0 20 7 17 13 -6z m64 4 c-3 -3 -12 -4 -19
-1 -8 3 -5 6 6 6 11 1 17 -2 13 -5z"/>
<path d="M3858 243 c12 -2 22 -9 22 -14 0 -5 7 -9 15 -9 8 0 15 7 15 15 0 11
-10 15 -37 14 -24 -1 -29 -3 -15 -6z"/>
<path d="M835 220 c-10 -11 -15 -20 -11 -20 11 0 39 30 34 36 -3 2 -13 -5 -23
-16z"/>
<path d="M1815 210 c-4 -16 -10 -30 -15 -30 -9 0 -30 -55 -30 -79 1 -26 29 17
41 64 6 22 15 45 20 52 6 7 6 13 0 17 -5 3 -12 -7 -16 -24z"/>
<path d="M1995 230 c-3 -5 -1 -10 4 -10 6 0 11 5 11 10 0 6 -2 10 -4 10 -3 0
-8 -4 -11 -10z"/>
<path d="M3630 225 c0 -8 5 -15 10 -15 6 0 10 7 10 15 0 8 -4 15 -10 15 -5 0
-10 -7 -10 -15z"/>
<path d="M4035 229 c-4 -6 -5 -13 -2 -16 7 -7 27 6 27 18 0 12 -17 12 -25 -2z"/>
<path d="M940 219 c0 -5 5 -7 10 -4 6 3 10 8 10 11 0 2 -4 4 -10 4 -5 0 -10
-5 -10 -11z"/>
<path d="M4148 223 c-15 -4 -15 -6 3 -24 11 -11 18 -23 15 -27 -2 -4 7 -8 22
-9 26 -2 27 -2 5 9 -13 6 -23 17 -23 25 0 16 17 17 23 1 2 -7 8 -10 12 -5 8 6
-23 38 -35 36 -3 -1 -13 -3 -22 -6z"/>
<path d="M5066 221 c14 -13 62 -22 68 -12 7 11 -17 21 -52 21 -15 0 -22 -4
-16 -9z"/>
<path d="M3530 210 c0 -5 5 -10 10 -10 6 0 10 5 10 10 0 6 -4 10 -10 10 -5 0
-10 -4 -10 -10z"/>
<path d="M3803 213 c-23 -8 -13 -18 17 -18 17 0 30 3 30 6 0 9 -32 17 -47 12z"/>
<path d="M3997 194 c4 -11 0 -14 -18 -11 -13 2 -18 2 -11 0 7 -3 10 -8 7 -13
-3 -5 0 -12 6 -16 6 -3 15 0 20 7 12 19 11 49 -1 49 -5 0 -7 -7 -3 -16z"/>
<path d="M3720 186 c0 -9 5 -16 10 -16 6 0 10 4 10 9 0 6 -4 13 -10 16 -5 3
-10 -1 -10 -9z"/>
<path d="M4225 190 c4 -6 11 -8 16 -5 14 9 11 15 -7 15 -8 0 -12 -5 -9 -10z"/>
<path d="M4257 179 c-13 -15 -14 -19 -3 -19 17 0 40 26 28 34 -5 3 -16 -4 -25
-15z"/>
<path d="M3675 180 c-18 -8 -17 -9 8 -9 16 -1 26 3 22 9 -3 6 -7 10 -8 9 -1 0
-11 -4 -22 -9z"/>
<path d="M4070 170 c0 -11 2 -20 4 -20 2 0 6 9 9 20 3 11 1 20 -4 20 -5 0 -9
-9 -9 -20z"/>
<path d="M815 170 c-3 -5 -1 -10 4 -10 6 0 11 5 11 10 0 6 -2 10 -4 10 -3 0
-8 -4 -11 -10z"/>
<path d="M1218 173 c7 -3 16 -2 19 1 4 3 -2 6 -13 5 -11 0 -14 -3 -6 -6z"/>
<path d="M3828 164 c5 -9 8 -26 5 -38 -3 -17 -2 -16 7 3 12 27 7 51 -10 51 -7
0 -8 -6 -2 -16z"/>
<path d="M850 150 c0 -5 4 -10 9 -10 6 0 13 5 16 10 3 6 -1 10 -9 10 -9 0 -16
-4 -16 -10z"/>
<path d="M3723 141 c1 -15 4 -17 14 -9 7 5 10 14 7 19 -10 16 -23 9 -21 -10z"/>
<path d="M4284 149 c-3 -6 -1 -16 5 -22 8 -8 11 -5 11 11 0 24 -5 28 -16 11z"/>
<path d="M910 140 c0 -5 5 -10 10 -10 6 0 10 5 10 10 0 6 -4 10 -10 10 -5 0
-10 -4 -10 -10z"/>
<path d="M1854 125 c3 -8 1 -15 -5 -15 -6 0 -8 -4 -5 -9 4 -5 2 -11 -3 -13
-13 -4 -18 -26 -7 -26 5 0 13 -6 18 -14 5 -8 6 -4 3 13 -4 16 -1 31 8 40 15
15 12 39 -5 39 -6 0 -8 -7 -4 -15z"/>
<path d="M4145 130 c-3 -5 -1 -10 4 -10 6 0 11 5 11 10 0 6 -2 10 -4 10 -3 0
-8 -4 -11 -10z"/>
<path d="M3877 105 c-2 -15 0 -24 6 -22 12 4 18 47 6 47 -3 0 -9 -11 -12 -25z"/>
<path d="M2077 64 c-16 -31 -26 -58 -24 -61 7 -6 33 39 41 70 3 15 11 27 16
27 6 0 10 5 10 10 0 25 -18 5 -43 -46z"/>
<path d="M3756 93 c9 -38 14 -42 14 -10 0 14 -5 29 -10 32 -7 4 -8 -3 -4 -22z"/>
<path d="M3997 95 c-6 -35 -4 -40 10 -23 6 7 7 22 3 33 -6 17 -8 15 -13 -10z"/>
<path d="M18 93 c6 -2 12 -9 12 -15 0 -6 -7 -8 -15 -4 -12 4 -15 -3 -15 -30 0
-37 22 -56 42 -36 8 8 5 9 -11 5 -16 -4 -21 -1 -21 16 0 13 5 19 14 15 7 -3
16 2 19 10 4 9 14 16 24 16 11 1 4 7 -16 15 -18 8 -36 15 -40 14 -3 0 0 -3 7
-6z"/>
<path d="M741 84 c0 -11 3 -14 6 -6 3 7 2 16 -1 19 -3 4 -6 -2 -5 -13z"/>
<path d="M1454 84 c4 -9 1 -23 -5 -31 -8 -9 -9 -17 -2 -24 7 -7 14 3 21 30 8
34 7 41 -5 41 -10 0 -13 -6 -9 -16z"/>
<path d="M1690 87 c0 -9 5 -17 12 -17 6 0 22 -9 34 -21 14 -13 24 -17 29 -10
3 6 -2 14 -12 18 -10 3 -28 15 -40 26 -20 18 -23 18 -23 4z"/>
<path d="M130 80 c0 -5 5 -10 11 -10 5 0 7 5 4 10 -3 6 -8 10 -11 10 -2 0 -4
-4 -4 -10z"/>
<path d="M216 74 c-4 -10 -13 -13 -26 -9 -11 4 -20 2 -20 -4 0 -6 6 -11 14
-11 8 0 16 -7 20 -15 3 -8 12 -15 21 -15 18 0 20 17 3 22 -7 3 -8 10 -4 17 7
11 10 11 17 0 4 -7 11 -10 15 -6 7 7 -13 37 -26 37 -4 0 -11 -7 -14 -16z"/>
<path d="M387 50 c7 -25 9 -25 16 0 3 12 0 20 -8 20 -8 0 -11 -8 -8 -20z"/>
<path d="M4250 60 c0 -5 5 -10 10 -10 6 0 10 5 10 10 0 6 -4 10 -10 10 -5 0
-10 -4 -10 -10z"/>
<path d="M68 38 c9 -9 15 -9 24 0 9 9 7 12 -12 12 -19 0 -21 -3 -12 -12z"/>
<path d="M125 40 c3 -5 8 -10 11 -10 2 0 4 5 4 10 0 6 -5 10 -11 10 -5 0 -7
-4 -4 -10z"/>
<path d="M310 39 c0 -5 5 -7 12 -3 8 5 9 0 5 -15 -3 -14 -1 -21 6 -18 7 2 13
13 15 25 3 17 -2 22 -17 22 -12 0 -21 -5 -21 -11z"/>
<path d="M3955 40 c-7 -12 2 -30 15 -30 5 0 6 8 3 18 -6 15 -5 15 10 3 15 -12
17 -11 17 3 0 18 -35 22 -45 6z"/>
<path d="M4075 40 c-3 -5 3 -10 15 -10 12 0 18 5 15 10 -3 6 -10 10 -15 10 -5
0 -12 -4 -15 -10z"/>
<path d="M4286 42 c-3 -6 -1 -14 5 -17 15 -10 25 3 12 16 -7 7 -13 7 -17 1z"/>
<path d="M706 25 c-3 -8 -1 -15 3 -15 5 0 11 7 15 15 3 8 1 15 -3 15 -5 0 -11
-7 -15 -15z"/>
<path d="M1810 36 c0 -2 7 -7 16 -10 8 -3 12 -2 9 4 -6 10 -25 14 -25 6z"/>
<path d="M3791 24 c0 -11 3 -14 6 -6 3 7 2 16 -1 19 -3 4 -6 -2 -5 -13z"/>
<path d="M4150 33 c0 -6 8 -17 18 -24 16 -13 16 -13 2 6 -8 11 -16 22 -17 24
-2 2 -3 0 -3 -6z"/>
<path d="M1670 26 c0 -2 7 -9 15 -16 13 -11 14 -10 9 4 -5 14 -24 23 -24 12z"/>
<path d="M3821 14 c0 -11 3 -14 6 -6 3 7 2 16 -1 19 -3 4 -6 -2 -5 -13z"/>
<path d="M4020 20 c0 -5 7 -10 16 -10 8 0 12 5 9 10 -3 6 -10 10 -16 10 -5 0
-9 -4 -9 -10z"/>
<path d="M3615 10 c-3 -6 1 -7 9 -4 18 7 21 14 7 14 -6 0 -13 -4 -16 -10z"/>
<path d="M3915 10 c-3 -5 1 -10 10 -10 9 0 13 5 10 10 -3 6 -8 10 -10 10 -2 0
-7 -4 -10 -10z"/>
<path d="M4110 9 c0 -5 9 -9 20 -9 11 0 20 2 20 4 0 2 -9 6 -20 9 -11 3 -20 1
-20 -4z"/>
</g>
</svg>
